<svg xmlns="http://www.w3.org/2000/svg" aria-hidden="true" style="position:absolute;width:0;height:0;overflow:hidden">
  <defs>
    <symbol id="logo-icon" viewBox="0 0 27 32">
      <path fill="#fff" d="m25.945 6.793-.036-.02L14.651.384a2.766 2.766 0 0 0-2.812 0L.58 6.773c-.273.155-.58.38-.58.83 0 .068.007.13.02.188v7.781a.854.854 0 0 0-.02.188c0 .448.307.675.58.83l5.934 3.362L.58 23.319c-.273.155-.58.421-.58.83 0 .502.304.673.576.827l10.969 6.214c1.09.618 2.31.618 3.4 0l10.964-6.212c.273-.155.58-.346.58-.83a.954.954 0 0 0-.02-.2v-7.977c.013-.063.02-.134.02-.213 0-.506-.268-.656-.527-.8a2.51 2.51 0 0 1-.053-.03l-5.729-3.251 5.729-3.246.035-.02c.264-.148.546-.307.546-.81s-.281-.661-.544-.81zM.046 15.48z" opacity=".8" style="fill:var(--color1, #fff)"/>
      <path fill="#fa7b26" d="M26.469 24.196v-8.37c-.15.548-.451.574-1.202.997a592.688 592.688 0 0 0-5.41 3.07c1.714 1.034 5.203 3.008 5.878 3.365s.735.661.735.937z" style="fill:var(--color2, #fa7b26)"/>
      <path fill="#f8ae39" d="M.02 15.581V7.609c.145.531.436.688 1.163 1.098 2.035 1.147 3.549 2.051 5.148 2.975-1.291.757-5.502 3.09-5.954 3.391-.27.253-.341.381-.357.508v.246c0-.098-.009-.172 0-.246z" style="fill:var(--color3, #f8ae39)"/>
      <path fill="#fc561d" d="M26.489 24.148c0-.485-.307-.675-.58-.83l-11.258-6.389a2.766 2.766 0 0 0-2.812 0L.58 23.318c-.273.155-.58.421-.58.83 0 .505.307.675.58.83l10.964 6.212c1.09.618 2.31.618 3.4 0l10.964-6.212c.273-.155.58-.346.58-.83z" style="fill:var(--color4, #fc561d)"/>
      <path fill="#fa8428" d="M26.489 15.407c0-.541-.307-.675-.58-.83L14.651 8.188a2.766 2.766 0 0 0-2.812 0L.58 14.577c-.273.155-.58.382-.58.83s.307.675.58.83l10.964 6.212c1.09.618 2.31.618 3.4 0l10.964-6.212c.273-.155.58-.306.58-.83z" opacity=".8" style="fill:var(--color5, #fa8428)"/>
      <path fill="#f8b332" d="M26.489 7.602c0-.526-.307-.675-.58-.83L14.651.383a2.766 2.766 0 0 0-2.812 0L.58 6.772c-.273.155-.58.38-.58.83s.307.675.58.83l10.964 6.212c1.09.618 2.31.618 3.4 0l10.964-6.212c.273-.155.58-.304.58-.83z" opacity=".8" style="fill:var(--color6, #f8b332)"/>
    </symbol>
    <symbol id="logo-name" viewBox="0 0 226 32">
      <path d="M200.092 9.597c0-1.265.241-2.453.725-3.562s1.137-2.076 1.961-2.901a9.404 9.404 0 0 1 2.923-1.983 8.817 8.817 0 0 1 3.561-.725h14.033v6.121h-14.033a3.03 3.03 0 0 0-2.816 1.856c-.156.37-.233.768-.233 1.194 0 .427.077.832.233 1.216.156.37.371.697.64.981.284.27.612.483.981.64.371.156.768.235 1.195.235h6.12c1.267 0 2.453.242 3.563.725a8.808 8.808 0 0 1 2.921 1.962 8.81 8.81 0 0 1 1.961 2.922c.484 1.109.725 2.296.725 3.562s-.241 2.453-.725 3.562a9.137 9.137 0 0 1-1.961 2.922 9.265 9.265 0 0 1-2.921 1.962 8.83 8.83 0 0 1-3.563.725h-13.585V24.89h13.585a3.022 3.022 0 0 0 2.816-1.856c.157-.37.235-.768.235-1.194s-.079-.825-.235-1.194a2.81 2.81 0 0 0-.661-.96c-.271-.284-.591-.505-.96-.661s-.768-.235-1.195-.235h-6.12a8.81 8.81 0 0 1-3.561-.725 9.566 9.566 0 0 1-2.923-1.962 9.6 9.6 0 0 1-1.961-2.922 8.957 8.957 0 0 1-.725-3.583zM198.707 27.875a15.609 15.609 0 0 1-4.777 2.815 15.647 15.647 0 0 1-5.481.981 15.29 15.29 0 0 1-4.202-.576 16.099 16.099 0 0 1-3.775-1.578c-1.166-.697-2.232-1.528-3.199-2.495s-1.799-2.033-2.495-3.199a16.712 16.712 0 0 1-1.6-3.775c-.37-1.351-.555-2.751-.555-4.201s.185-2.851.555-4.201a16.19 16.19 0 0 1 1.6-3.775c.697-1.18 1.528-2.254 2.495-3.22s2.033-1.792 3.199-2.474a15.533 15.533 0 0 1 3.775-1.6 15.29 15.29 0 0 1 4.202-.576c1.89 0 3.718.327 5.481.981a15.058 15.058 0 0 1 4.777 2.815l-3.243 5.332a9.019 9.019 0 0 0-3.177-2.218 9.61 9.61 0 0 0-3.838-.789c-1.351 0-2.616.256-3.797.768s-2.211 1.209-3.093 2.09a9.588 9.588 0 0 0-2.09 3.092c-.512 1.18-.768 2.438-.768 3.775s.256 2.595.768 3.775c.512 1.166 1.208 2.19 2.09 3.071s1.912 1.578 3.093 2.09a9.436 9.436 0 0 0 3.797.768 9.836 9.836 0 0 0 3.838-.768 9.262 9.262 0 0 0 3.177-2.239l3.243 5.332zM168.591 31.01h-6.121V.427h6.121V31.01zM156.99 31.01h-6.1V9.171c0-.427-.085-.825-.256-1.194a2.823 2.823 0 0 0-.661-.96c-.27-.284-.59-.505-.96-.661s-.768-.235-1.194-.235a3.02 3.02 0 0 0-2.815 1.856c-.157.37-.235.768-.235 1.194V31.01h-6.121V9.171c0-.427-.078-.825-.235-1.194s-.377-.69-.661-.96c-.27-.284-.59-.505-.96-.661s-.768-.235-1.194-.235a3.017 3.017 0 0 0-2.175.896 3.042 3.042 0 0 0-.875 2.154V31.01h-6.121V9.171c0-1.265.235-2.453.704-3.562a9.258 9.258 0 0 1 1.962-2.922 9.107 9.107 0 0 1 2.922-1.962A8.975 8.975 0 0 1 135.598 0c1.137 0 2.232.206 3.285.619a8.756 8.756 0 0 1 2.837 1.749 8.81 8.81 0 0 1 2.815-1.749A8.93 8.93 0 0 1 147.82 0c1.265 0 2.453.242 3.562.725a8.812 8.812 0 0 1 2.922 1.962 8.812 8.812 0 0 1 1.962 2.922 8.822 8.822 0 0 1 .725 3.562V31.01zM122.61 15.847c0 1.45-.192 2.851-.576 4.202a16.099 16.099 0 0 1-1.578 3.775c-.682 1.166-1.507 2.232-2.474 3.199s-2.033 1.799-3.199 2.495a15.522 15.522 0 0 1-3.775 1.578c-1.351.384-2.751.576-4.201.576s-2.851-.192-4.201-.576a16.081 16.081 0 0 1-3.775-1.578c-1.166-.697-2.232-1.528-3.199-2.495s-1.799-2.033-2.495-3.199a16.712 16.712 0 0 1-1.6-3.775c-.37-1.351-.554-2.751-.554-4.202s.185-2.851.554-4.201a16.19 16.19 0 0 1 1.6-3.775c.697-1.166 1.528-2.232 2.495-3.199s2.033-1.792 3.199-2.474A16.039 16.039 0 0 1 102.606.62c1.351-.384 2.751-.576 4.201-.576s2.851.192 4.201.576c1.351.37 2.609.896 3.775 1.578s2.232 1.507 3.199 2.474a15.522 15.522 0 0 1 4.052 6.974c.384 1.351.576 2.751.576 4.201zm-6.078 0a9.383 9.383 0 0 0-.768-3.775 9.572 9.572 0 0 0-2.09-3.092 9.566 9.566 0 0 0-3.093-2.09 9.38 9.38 0 0 0-3.775-.768c-1.351 0-2.616.256-3.796.768s-2.211 1.209-3.092 2.09a9.572 9.572 0 0 0-2.09 3.092c-.512 1.18-.768 2.438-.768 3.775s.256 2.595.768 3.775c.512 1.166 1.209 2.19 2.09 3.071s1.912 1.578 3.092 2.09a9.435 9.435 0 0 0 3.796.768 9.383 9.383 0 0 0 3.775-.768 9.587 9.587 0 0 0 3.093-2.09 9.953 9.953 0 0 0 2.09-3.071 9.38 9.38 0 0 0 .768-3.775zM86.951 31.01h-6.547L68.61 10.877V31.01h-6.121V.427h6.547L80.83 20.581V.427h6.121V31.01zM58.458 15.847c0 1.45-.192 2.851-.576 4.202a16.099 16.099 0 0 1-1.578 3.775c-.683 1.166-1.507 2.232-2.474 3.199s-2.033 1.799-3.199 2.495a15.522 15.522 0 0 1-3.775 1.578c-1.351.384-2.751.576-4.201.576s-2.851-.192-4.201-.576a16.099 16.099 0 0 1-3.775-1.578c-1.166-.697-2.232-1.528-3.199-2.495s-1.799-2.033-2.495-3.199a16.71 16.71 0 0 1-1.599-3.775c-.37-1.351-.555-2.751-.555-4.202s.185-2.851.555-4.201a16.23 16.23 0 0 1 1.599-3.775c.697-1.166 1.528-2.232 2.495-3.199s2.033-1.792 3.199-2.474A16.039 16.039 0 0 1 38.454.62c1.351-.384 2.751-.576 4.201-.576s2.851.192 4.201.576c1.351.37 2.609.896 3.775 1.578s2.232 1.507 3.199 2.474a15.561 15.561 0 0 1 4.052 6.974c.384 1.351.576 2.751.576 4.201zm-6.079 0a9.383 9.383 0 0 0-.768-3.775 9.572 9.572 0 0 0-2.09-3.092 9.566 9.566 0 0 0-3.093-2.09 9.38 9.38 0 0 0-3.775-.768c-1.351 0-2.616.256-3.796.768s-2.211 1.209-3.093 2.09a9.572 9.572 0 0 0-2.09 3.092c-.512 1.18-.768 2.438-.768 3.775s.256 2.595.768 3.775c.512 1.166 1.209 2.19 2.09 3.071s1.912 1.578 3.093 2.09a9.431 9.431 0 0 0 3.796.768 9.383 9.383 0 0 0 3.775-.768 9.587 9.587 0 0 0 3.093-2.09 9.953 9.953 0 0 0 2.09-3.071 9.38 9.38 0 0 0 .768-3.775zM0 9.597c0-1.265.242-2.453.725-3.562s1.137-2.076 1.962-2.901c.839-.839 1.813-1.5 2.922-1.983S7.905.426 9.171.426h14.033v6.121H9.171a3.017 3.017 0 0 0-2.175.896 3.024 3.024 0 0 0-.875 2.154c0 .427.078.832.235 1.216.156.37.37.697.64.981.284.27.611.483.981.64s.768.235 1.194.235h6.121c1.265 0 2.453.242 3.562.725a8.812 8.812 0 0 1 2.922 1.962 8.812 8.812 0 0 1 1.962 2.922c.483 1.109.725 2.296.725 3.562s-.242 2.453-.725 3.562a9.107 9.107 0 0 1-1.962 2.922 9.258 9.258 0 0 1-2.922 1.962 8.822 8.822 0 0 1-3.562.725H1.707V24.89h13.585c.427 0 .825-.078 1.194-.235s.69-.369.96-.64a3.042 3.042 0 0 0 .896-2.175 3.02 3.02 0 0 0-.235-1.194 2.823 2.823 0 0 0-.661-.96c-.27-.284-.59-.505-.96-.661s-.768-.235-1.194-.235H9.171c-1.265 0-2.453-.242-3.562-.725s-2.083-1.137-2.922-1.962a9.585 9.585 0 0 1-1.962-2.922A8.975 8.975 0 0 1 0 9.598z"/>
    </symbol>
    <symbol id="arrow" viewBox="0 0 34 32">
      <path d="M32.305 2.133A2.133 2.133 0 0 0 30.172 0h-19.2a2.133 2.133 0 0 0 0 4.266h17.067v17.067a2.133 2.133 0 0 0 4.266 0v-19.2zM3.947 31.375 31.68 3.642 28.663.625.93 28.358l3.017 3.017z"/>
    </symbol>
    <symbol id="arrow-left" viewBox="0 0 19 32">
      <path d="M14.464 31.364.637 17.537a2.172 2.172 0 0 1 0-3.073L14.464.637a2.172 2.172 0 1 1 3.073 3.073L5.246 16.001l12.291 12.291a2.174 2.174 0 0 1-3.073 3.073z"/>
    </symbol>
    <symbol id="arrow-right" viewBox="0 0 19 32">
      <path d="m4.282 31.364 13.827-13.827a2.172 2.172 0 0 0 0-3.073L4.282.637A2.172 2.172 0 1 0 1.209 3.71L13.5 16.001 1.209 28.292a2.172 2.172 0 1 0 3.073 3.073z"/>
    </symbol>
    <symbol id="arrow-button" viewBox="0 0 32 32">
      <path d="M32.001 2.946A2.462 2.462 0 0 0 29.539.484H7.385a2.462 2.462 0 0 0 0 4.924h19.692V25.1a2.462 2.462 0 1 0 4.924 0V2.946zM5.171 30.795 31.28 4.686l-3.481-3.481L1.691 27.313l3.481 3.481z"/>
    </symbol>
    <symbol id="arrow-left-bold" viewBox="0 0 32 32">
      <path d="M22.738 2.946c0.972 1.083 0.972 2.839 0 3.922l-8.196 9.132 8.196 9.132c0.972 1.083 0.972 2.839 0 3.922s-2.548 1.083-3.52 0l-9.956-11.093c-0.972-1.083-0.972-2.839 0-3.922l9.956-11.093c0.972-1.083 2.548-1.083 3.52 0z"></path>
    </symbol>
    <symbol id="arrow-right-bold" viewBox="0 0 32 32">
      <path d="M9.262 2.946c-0.972 1.083-0.972 2.839 0 3.922l8.196 9.132-8.196 9.132c-0.972 1.083-0.972 2.839 0 3.922s2.548 1.083 3.52 0l9.956-11.093c0.972-1.083 0.972-2.839 0-3.922l-9.956-11.093c-0.972-1.083-2.548-1.083-3.52 0z"></path>
    </symbol>
    <symbol id="sun" viewBox="0 0 34 32">
      <path d="M18.108 30.86a1.14 1.14 0 0 1-2.28 0v-3.546a1.14 1.14 0 0 1 2.28 0v3.546zm6.056-6.053a1.14 1.14 0 1 1 1.612-1.613l2.507 2.507a1.14 1.14 0 1 1-1.613 1.612l-2.506-2.506zM7.267 27.313a1.138 1.138 0 0 1-1.612 0 1.142 1.142 0 0 1 0-1.612l2.507-2.507a1.14 1.14 0 1 1 1.612 1.613l-2.508 2.506zm9.672-19.248a8.047 8.047 0 0 0-8.042 8.043 8.046 8.046 0 0 0 8.042 8.042 8.047 8.047 0 0 0 8.043-8.042 8.047 8.047 0 0 0-8.043-8.043zm0 2.28c3.181 0 5.764 2.583 5.764 5.764s-2.583 5.763-5.764 5.763c-3.18 0-5.763-2.582-5.763-5.763s2.583-5.764 5.763-5.764zm11.344 6.795a1.14 1.14 0 0 1 0-2.28h3.546a1.14 1.14 0 0 1 0 2.28h-3.546zm-26.175 0a1.14 1.14 0 0 1 0-2.28h3.546a1.14 1.14 0 0 1 0 2.28H2.108zM5.655 6.298a1.142 1.142 0 0 1 0-1.612 1.138 1.138 0 0 1 1.612 0l2.507 2.506a1.143 1.143 0 0 1 0 1.613 1.142 1.142 0 0 1-1.612 0L5.655 6.298zm20.121 2.508a1.14 1.14 0 1 1-1.612-1.613l2.506-2.506a1.14 1.14 0 1 1 1.613 1.612l-2.507 2.507zm-7.668-4.12a1.14 1.14 0 0 1-2.28 0V1.14a1.14 1.14 0 0 1 2.28 0v3.546z"/>
    </symbol>
    <symbol id="moon" viewBox="0 0 32 32">
      <path d="M17.066 27.731c-7.054 0-12.8-5.746-12.8-12.805S9.75 2.303 16.752 2.135c.379-.014.692.16.903.444s.271.655.154 1a10.672 10.672 0 0 0-.556 3.384c0 5.857 4.763 10.618 10.618 10.618h.271c.35 0 .686.168.889.453.205.285.262.655.145.986a12.772 12.772 0 0 1-12.127 8.714l.017-.003zM15.329 4.459c-5.076.823-8.868 5.17-8.868 10.472 0 5.857 4.763 10.618 10.612 10.618 4.062 0 7.708-2.296 9.481-5.849-6.438-.672-11.472-6.125-11.472-12.734 0-.838.08-1.678.248-2.501l-.001-.006z"/>
    </symbol>
    <symbol id="phone" viewBox="0 0 30 32">
      <path d="M4.053 5.8c-0.692 0-1.253 0.561-1.253 1.252 0 11.679 9.468 21.148 21.147 21.148 0.691 0 1.252-0.561 1.252-1.253l0.001-3.852c0-0 0 0 0 0 0-0.572-0.348-1.087-0.88-1.3 0 0 0 0 0 0l-3.691-1.476c-0.478-0.191-1.021-0.105-1.416 0.224l-0.952 0.794c-1.668 1.39-4.124 1.28-5.66-0.256l-2.682-2.685c-0-0 0 0 0 0-1.535-1.535-1.649-3.989-0.258-5.658l0.794-0.953c-0 0 0-0 0 0 0.33-0.396 0.416-0.94 0.226-1.416l-1.477-3.69c-0.213-0.532-0.728-0.88-1.3-0.88h-3.851zM0 7.052c0-2.238 1.815-4.052 4.053-4.052h3.851c1.717 0 3.262 1.046 3.9 2.64l1.477 3.69c0.573 1.434 0.313 3.065-0.674 4.249l-0.794 0.953c-0.463 0.555-0.426 1.373 0.087 1.886l2.682 2.685c0.512 0.511 1.331 0.549 1.887 0.085l0.952-0.794c1.185-0.988 2.817-1.246 4.249-0.673 0-0 0 0 0 0l3.691 1.476c1.594 0.638 2.64 2.182 2.64 3.9l-0.001 3.852c0 0 0 0 0 0-0 2.238-1.814 4.053-4.052 4.053-13.226 0-23.947-10.722-23.947-23.948z"></path>
    </symbol>
    <symbol id="email" viewBox="0 0 30 32">
      <path d="M6.243 3h17.516c0.791-0 1.473-0 2.034 0.050 0.593 0.053 1.182 0.168 1.75 0.482 0.845 0.466 1.536 1.211 1.968 2.13 0.289 0.615 0.396 1.253 0.444 1.895 0.046 0.608 0.046 1.346 0.046 2.201v12.486c0 0.855 0 1.593-0.046 2.2-0.048 0.642-0.155 1.28-0.444 1.894-0.432 0.918-1.122 1.664-1.968 2.131-0.567 0.313-1.156 0.429-1.748 0.481-0.561 0.050-1.242 0.050-2.031 0.050h-17.525c-0.789 0-1.47 0-2.032-0.050-0.592-0.052-1.182-0.168-1.749-0.481-0.848-0.468-1.535-1.215-1.966-2.131-0.289-0.615-0.396-1.254-0.445-1.896-0.046-0.609-0.046-1.347-0.046-2.204v-12.475c-0-0.857-0-1.596 0.046-2.205 0.048-0.642 0.155-1.282 0.445-1.897 0.431-0.917 1.119-1.663 1.966-2.13 0.568-0.313 1.158-0.429 1.751-0.482 0.562-0.050 1.244-0.050 2.035-0.050zM5.492 6.252l7.574 6.196c0.001 0.001 0.003 0.002 0.004 0.004 1.107 0.879 1.344 1.033 1.554 1.091 0.246 0.069 0.506 0.069 0.752 0 0.21-0.059 0.45-0.214 1.563-1.098l0.247-0.205c0.167-0.139 0.41-0.34 0.712-0.59 0.603-0.499 1.441-1.193 2.383-1.968 1.316-1.083 2.837-2.33 4.198-3.431-0.229-0.002-0.486-0.002-0.778-0.002h-17.4c-0.305 0-0.572 0-0.809 0.002zM26.987 8.28c-1.509 1.213-3.338 2.711-4.892 3.99-0.938 0.773-1.774 1.464-2.376 1.962-0.301 0.249-0.543 0.45-0.709 0.588l-0.257 0.213-0.027 0.022c-0.060 0.048-0.119 0.095-0.178 0.142-0.838 0.668-1.575 1.255-2.42 1.492-0.739 0.207-1.515 0.207-2.255 0-0.845-0.237-1.58-0.823-2.417-1.49-0.059-0.047-0.118-0.094-0.178-0.142-0.012-0.009-0.024-0.019-0.035-0.029l-8.23-6.733c-0.012 0.392-0.012 0.881-0.012 1.529v12.35c0 0.937 0.001 1.542 0.036 2.002 0.033 0.441 0.090 0.605 0.128 0.685 0.144 0.307 0.374 0.555 0.655 0.711 0.074 0.041 0.225 0.102 0.632 0.138 0.424 0.038 0.982 0.039 1.845 0.039h17.409c0.863 0 1.42-0.001 1.844-0.039 0.406-0.036 0.557-0.097 0.631-0.138 0.283-0.156 0.513-0.406 0.657-0.711 0.038-0.080 0.094-0.243 0.127-0.684 0.035-0.459 0.036-1.063 0.036-1.998v-12.361c0-0.654-0.001-1.146-0.013-1.54z"></path>
    </symbol>
    <symbol id="location" viewBox="0 0 30 32">
      <path d="M15 4.039c-2.592 0-5.074 0.952-6.901 2.642s-2.849 3.976-2.849 6.357c0 3.244 1.524 6.302 3.524 8.903 1.993 2.59 4.364 4.603 5.83 5.726 0.113 0.086 0.195 0.15 0.268 0.203 0.059 0.044 0.099 0.071 0.127 0.090 0.028-0.018 0.068-0.046 0.127-0.089 0.073-0.053 0.156-0.117 0.268-0.203 1.466-1.123 3.837-3.135 5.83-5.726 2.001-2.601 3.524-5.658 3.524-8.902 0-2.381-1.023-4.669-2.849-6.358s-4.309-2.642-6.9-2.642zM5.814 4.52c2.439-2.256 5.744-3.52 9.186-3.52s6.747 1.264 9.186 3.52c2.44 2.256 3.814 5.32 3.814 8.518 0 4.127-1.925 7.803-4.136 10.677-2.219 2.885-4.823 5.088-6.41 6.302-0.027 0.020-0.054 0.041-0.081 0.063-0.36 0.277-0.828 0.639-1.492 0.813-0.542 0.143-1.22 0.143-1.762 0-0.664-0.175-1.134-0.538-1.49-0.813-0.028-0.022-0.056-0.043-0.083-0.064-1.586-1.214-4.19-3.418-6.41-6.303-2.211-2.874-4.136-6.55-4.136-10.677 0-3.198 1.374-6.261 3.814-8.517zM15 10.116c-0.897 0-1.625 0.68-1.625 1.519s0.728 1.519 1.625 1.519c0.897 0 1.625-0.68 1.625-1.519s-0.728-1.519-1.625-1.519zM10.125 11.635c0-2.517 2.183-4.558 4.875-4.558s4.875 2.041 4.875 4.558c0 2.517-2.183 4.558-4.875 4.558s-4.875-2.041-4.875-4.558z"></path>
    </symbol>
    <symbol id="fintech" viewBox="0 0 31 32">
      <path d="M15.587 23.318a4.58 4.58 0 1 0 .007-9.163 4.58 4.58 0 0 0-.007 9.164zm0-8.575a3.998 3.998 0 1 1-3.993 3.983 4 4 0 0 1 3.993-3.983zm-3.142 4.275h1.519c.066 1.802.734 3.128 1.608 3.128s1.554-1.324 1.608-3.128h1.429a.29.29 0 1 0 0-.582h-1.43c-.066-1.802-.734-3.131-1.608-3.131s-1.554 1.329-1.608 3.131h-1.518a.291.291 0 0 0 0 .582zm3.142 2.559c-.408 0-.963-.96-1.026-2.545h2.035c-.061 1.585-.621 2.545-1.01 2.545zm0-5.676c.389 0 .963.963 1.026 2.548h-2.067c.063-1.585.618-2.548 1.042-2.548zM1.715 26.145c0 1.012.817 1.837 1.83 1.846H7.78A2.292 2.292 0 0 0 9.302 32h12.572a2.291 2.291 0 0 0 1.522-4.009h4.235a1.845 1.845 0 0 0 1.844-1.846V11.344a1.842 1.842 0 0 0-1.844-1.857H3.545a1.847 1.847 0 0 0-1.83 1.857v14.801zm21.871 3.559c0 .945-.768 1.713-1.713 1.713H9.301a1.713 1.713 0 0 1 0-3.426h12.572c.945.001 1.71.768 1.713 1.713zM2.298 11.345a1.264 1.264 0 0 1 1.247-1.275h24.086a1.264 1.264 0 0 1 1.247 1.275v14.801a1.26 1.26 0 0 1-1.247 1.263H3.545a1.264 1.264 0 0 1-1.262-1.263l.015-14.801zm10.007-6.941c.615-.52.692-1.439.175-2.055a6.606 6.606 0 0 0-10.102 0 1.462 1.462 0 0 0 .168 2.055c.262.223.596.347.94.345h.121c.385-.031.742-.214.991-.508a3.698 3.698 0 0 1 5.648 0c.28.323.688.507 1.116.501.344.001.677-.119.944-.338zm-1.608-.545a4.274 4.274 0 0 0-6.534 0 .839.839 0 0 1-.594.303.873.873 0 0 1-.734-1.436 6.025 6.025 0 0 1 9.192 0 .867.867 0 0 1-.098 1.238.896.896 0 0 1-1.231-.105zM7.43 3.86v-.001A3.74 3.74 0 0 0 4.556 5.22a1.452 1.452 0 0 0 .163 2.078c.302.252.692.37 1.082.331.39-.041.747-.236.992-.543a.806.806 0 0 1 1.274 0c.277.334.686.526 1.119.524a1.455 1.455 0 0 0 1.119-2.389 3.74 3.74 0 0 0-2.874-1.349v-.01zm2.331 2.965v-.001a.899.899 0 0 1-1.231-.112 1.385 1.385 0 0 0-1.084-.521c-.422 0-.822.191-1.084.521a.875.875 0 0 1-1.344-1.119 3.137 3.137 0 0 1 4.855 0 .878.878 0 0 1-.112 1.243v-.01zm18.874-2.431v-.001a1.462 1.462 0 0 0 .16-2.044 6.606 6.606 0 0 0-10.101 0 1.462 1.462 0 0 0 .168 2.055c.262.223.596.347.94.345h.121c.385-.031.742-.214.991-.508a3.698 3.698 0 0 1 5.648 0c.28.323.688.507 1.116.501.344.001.677-.119.944-.338l.015-.01zm-1.608-.544v-.003a4.27 4.27 0 0 0-6.533 0 .843.843 0 0 1-.594.303.875.875 0 0 1-.734-1.436 6.02 6.02 0 0 1 9.19 0 .866.866 0 0 1-.112 1.25.896.896 0 0 1-1.231-.105l.015-.009zm-3.267 0 .001-.003a3.747 3.747 0 0 0-2.876 1.361 1.455 1.455 0 0 0 .165 2.078 1.458 1.458 0 0 0 2.073-.212.808.808 0 0 1 1.275 0 1.456 1.456 0 1 0 2.237-1.865 3.74 3.74 0 0 0-2.89-1.337l.015-.02zm2.331 2.965.001-.003A.9.9 0 0 1 24.86 6.7a1.388 1.388 0 0 0-2.168 0 .875.875 0 0 1-1.343-1.119 3.136 3.136 0 0 1 4.855 0 .875.875 0 0 1-.128 1.254l.015-.02zM4.218 25.407V12.072a.293.293 0 0 1 .291-.291h6.289a.291.291 0 0 1 0 .582H4.801v12.752h2.331a.29.29 0 1 1 0 .582H4.51a.29.29 0 0 1-.291-.291zm15.868-13.335a.294.294 0 0 1 .291-.291h6.289c.16.001.29.131.291.291v13.335a.29.29 0 0 1-.291.291h-2.611a.291.291 0 0 1 0-.582h2.331V12.364h-6.009a.295.295 0 0 1-.291-.292z"/>
    </symbol>
    <symbol id="healthcare" viewBox="0 0 31 32">
      <path d="M1.234 26.824h5.149a2.618 2.618 0 0 0 1.674 4.629h14.518a2.617 2.617 0 0 0 1.67-4.634h5.154a1.915 1.915 0 0 0 1.916-1.914V7.423a1.915 1.915 0 0 0-1.916-1.916h-2.892a.287.287 0 0 0-.138.041 12.412 12.412 0 0 0-.206-.525c-.939-2.161-2.621-3.685-4.5-4.085-3.347-.706-5.626 1.479-6.347 2.287-.721-.806-3-2.993-6.347-2.287-1.88.404-3.561 1.924-4.5 4.085-.08.186-.153.375-.218.564a.297.297 0 0 0-.198-.08H1.23A1.915 1.915 0 0 0-.685 7.423v17.485c0 .51.201.997.563 1.357.36.36.848.561 1.357.56h.001zm23.357 2.016a2.016 2.016 0 0 1-2.016 2.017H8.057a2.017 2.017 0 0 1 0-4.033h14.518a2.013 2.013 0 0 1 2.016 2.016zM5.025 5.261c.859-1.98 2.383-3.371 4.07-3.731l-.002.002a5.86 5.86 0 0 1 1.21-.13c2.956 0 4.689 2.364 4.771 2.476v.002a.315.315 0 0 0 .491 0c.092-.129 2.291-3.126 5.977-2.347 1.686.358 3.226 1.75 4.07 3.731.963 2.218.891 4.609-.189 6.404-2.081 3.448-8.872 9.219-10.082 10.252-1.234-1.033-8.021-6.804-10.082-10.252-1.125-1.797-1.198-4.187-.233-6.406zM-.077 7.423c0-.724.587-1.311 1.311-1.311h2.848a7.385 7.385 0 0 0 .617 5.872c2.33 3.864 10.082 10.291 10.424 10.566v-.002a.307.307 0 0 0 .404 0c.327-.274 8.094-6.702 10.424-10.566v.002a7.398 7.398 0 0 0 .617-5.867h2.848c.723 0 1.31.587 1.31 1.31v17.482a1.309 1.309 0 0 1-1.326 1.304H1.235a1.32 1.32 0 0 1-.929-.383 1.317 1.317 0 0 1-.383-.928V7.425zm1.411 17.083.002-16.68a.302.302 0 0 1 .604 0v16.369h26.752V7.826a.302.302 0 1 1 .604 0v16.68a.3.3 0 0 1-.086.215.307.307 0 0 1-.216.088H1.637a.299.299 0 0 1-.302-.303h-.002zm7.437-12.768h3.105c.33-.002.643-.148.851-.404l.537 1.815c.124.445.508.765.968.808h.097c.426-.008.812-.26.988-.65l.806-1.612h1.11c.34.009.667-.139.883-.404.204.293.538.469.895.472l2.851.032a1.108 1.108 0 0 0 0-2.217l-2.088-.024-.673-1.742h-.002a1.102 1.102 0 0 0-1.053-.711 1.119 1.119 0 0 0-1.028.747l-.564 1.614h-1.016V9.46a1.055 1.055 0 0 0-.851.375l-.762-2.625a1.11 1.11 0 0 0-2.13 0l-.653 2.299h-2.27a1.11 1.11 0 0 0 0 2.219v.012zm0-1.614h2.512a.295.295 0 0 0 .29-.221l.718-2.516a.504.504 0 0 1 .972 0l.975 3.322a.3.3 0 0 0 .266.213.295.295 0 0 0 .295-.169l.198-.404-.002.002a.492.492 0 0 1 .46-.283h1.234a.307.307 0 0 0 .287-.201l.625-1.803a.502.502 0 0 1 .943-.017l.75 1.931a.292.292 0 0 0 .278.194l2.291.029a.506.506 0 0 1 .499.508.512.512 0 0 1-.511.501l-2.823-.033a.501.501 0 0 1-.464-.322l-.153-.404a.315.315 0 0 0-.29-.194.305.305 0 0 0-.278.206l-.109.307a.495.495 0 0 1-.479.339h-1.304a.302.302 0 0 0-.274.169l-.883 1.807a.509.509 0 0 1-.452.281h-.044a.501.501 0 0 1-.44-.358l-.779-2.642h.002a.31.31 0 0 0-.29-.218.309.309 0 0 0-.287.222l-.126.428h.002a.504.504 0 0 1-.484.366H8.79a.504.504 0 1 1 0-1.008l-.02-.033z"/>
    </symbol>
    <symbol id="ecommerce" viewBox="0 0 31 32">
      <path d="m17.389 18.398-.613-2.433v-.002a.407.407 0 0 0-.396-.307h-2.356c-.222 0-.403.186-.403.415s.181.415.403.415h2.017l1.911 7.623v.98c.005.678.537 1.225 1.194 1.229h6.172c.107 0 .21-.044.285-.122a.424.424 0 0 0 0-.588.398.398 0 0 0-.285-.122h-6.139a.402.402 0 0 1-.388-.399v-.615h6.454a.406.406 0 0 0 .396-.349l.887-5.247a.389.389 0 0 0-.088-.333.363.363 0 0 0-.307-.149h-8.745zm7.527 5.248h-6.211l-1.114-4.417h8.067l-.742 4.417zM19.584 27.765c0 .308.18.587.457.706s.597.054.81-.165c.213-.219.276-.547.161-.832s-.386-.472-.685-.472a.733.733 0 0 0-.525.224.77.77 0 0 0-.217.54zM23.496 27.765c0 .308.181.587.458.706s.596.054.808-.165c.213-.219.276-.547.161-.832s-.386-.472-.685-.472c-.197 0-.386.081-.525.224s-.217.337-.217.54z"/>
      <path d="M9.185 28.945h8.471c.222 0 .403-.187.403-.415s-.181-.415-.403-.415H9.185c-1.56 0-2.824-1.301-2.824-2.907v-.415h10.012c.222 0 .403-.187.403-.415s-.181-.415-.403-.415H6.361V8.184h15.328v8.555c0 .229.181.415.403.415s.403-.187.403-.415v-9.8c-.005-2.062-1.628-3.732-3.63-3.737H9.184c-2.003.005-3.626 1.676-3.63 3.737v18.27c.005 2.062 1.628 3.732 3.63 3.737zm0-24.915h9.681c1.56 0 2.824 1.301 2.824 2.907v.415H6.362v-.415c0-1.606 1.264-2.907 2.824-2.907z"/>
    </symbol>
    <symbol id="quotes" viewBox="0 0 33 32">
      <path d="M13.244 32 7.587 8.225l-1.029 5.526c2.057 0 3.729-.643 5.015-1.928 1.286-1.199 1.929-2.827 1.929-4.884s-.643-3.727-1.929-5.012S8.701-.001 6.816-.001c-2.057 0-3.729.643-5.015 1.928-1.2 1.371-1.8 3.042-1.8 5.012 0 .771.043 1.456.129 2.056s.257 1.328.514 2.185.6 1.885 1.029 3.084l5.4 17.735h6.172zm19.159 0L26.746 8.225l-1.029 5.526c2.057 0 3.729-.643 5.015-1.928 1.286-1.199 1.929-2.827 1.929-4.884s-.643-3.727-1.929-5.012S27.86-.001 25.975-.001c-2.057 0-3.729.643-5.015 1.928-1.2 1.371-1.8 3.042-1.8 5.012 0 .771.043 1.456.129 2.056s.257 1.328.514 2.185.6 1.885 1.029 3.084l5.4 17.735h6.172z"/>
    </symbol>
    <symbol id="drag-hand" viewBox="0 0 32 32">
      <path d="M21.964 13.129c-0.565 0.001-1.106 0.226-1.505 0.625s-0.624 0.941-0.625 1.505v0.853c0 0.093-0.037 0.182-0.103 0.248s-0.155 0.103-0.248 0.103-0.182-0.037-0.248-0.103c-0.066-0.066-0.103-0.155-0.103-0.248v-2.737c0-0.565-0.224-1.107-0.624-1.506s-0.941-0.624-1.506-0.624c-0.565 0-1.107 0.224-1.506 0.624s-0.624 0.941-0.624 1.506v1.232c0 0.093-0.037 0.182-0.103 0.248s-0.155 0.103-0.248 0.103c-0.093 0-0.182-0.037-0.248-0.103s-0.103-0.155-0.103-0.248v-12.56c-0.022-0.55-0.257-1.071-0.654-1.452s-0.927-0.595-1.478-0.595c-0.551 0-1.080 0.213-1.478 0.595s-0.632 0.902-0.654 1.452v1.123c0.014 0.116 0.021 0.234 0.021 0.351v9.665c0 0.093-0.037 0.182-0.103 0.248s-0.155 0.103-0.248 0.103h-0.021c-0.093 0-0.182-0.037-0.248-0.103s-0.103-0.155-0.103-0.248v-9.966c-0.076-0.533-0.35-1.018-0.769-1.357s-0.95-0.506-1.488-0.469c-0.537 0.037-1.041 0.277-1.408 0.671s-0.573 0.912-0.574 1.451v17.238c0 0.093-0.037 0.182-0.103 0.248s-0.155 0.103-0.248 0.103c-0.093 0-0.182-0.037-0.248-0.103s-0.103-0.155-0.103-0.248v-4.913c-0.024-0.55-0.259-1.070-0.658-1.451s-0.928-0.592-1.479-0.591-1.080 0.216-1.476 0.598c-0.396 0.382-0.629 0.904-0.65 1.454v4.306c0.054 3.16 1.347 6.172 3.601 8.388s5.288 3.457 8.448 3.457 6.194-1.242 8.448-3.457c2.254-2.216 3.547-5.228 3.601-8.388v-4.913c-0.006-0.562-0.233-1.1-0.632-1.495s-0.939-0.617-1.501-0.617z"></path>
      <path d="M22.338 0.195c0.26 0.26 0.26 0.682 0 0.943l-0.862 0.862h7.724c0.368 0 0.667 0.298 0.667 0.667s-0.299 0.667-0.667 0.667h-7.724l0.862 0.862c0.26 0.26 0.26 0.682 0 0.943s-0.683 0.26-0.943 0l-2-2c-0.26-0.26-0.26-0.682 0-0.943l2-2c0.26-0.26 0.683-0.26 0.943 0zM26.729 5.529c0.26-0.26 0.683-0.26 0.943 0l2 2c0.26 0.26 0.26 0.682 0 0.943l-2 2c-0.26 0.26-0.683 0.26-0.943 0s-0.26-0.682 0-0.943l0.862-0.862h-7.724c-0.368 0-0.667-0.298-0.667-0.667s0.299-0.667 0.667-0.667h7.724l-0.862-0.862c-0.26-0.26-0.26-0.682 0-0.943z"></path>
    </symbol>
    <symbol id="drag-hand-active" viewBox="0 0 32 32">
     <path d="M21.964 13.129c-0.565 0.001-1.106 0.226-1.505 0.625s-0.624 0.941-0.625 1.505v0.853c0 0.093-0.037 0.182-0.103 0.248s-0.155 0.103-0.248 0.103-0.182-0.037-0.248-0.103c-0.066-0.066-0.103-0.155-0.103-0.248v-2.737c0-0.565-0.224-1.107-0.624-1.506s-0.941-0.624-1.506-0.624c-0.565 0-1.107 0.224-1.506 0.624s-0.624 0.941-0.624 1.506v1.232c0 0.093-0.037 0.182-0.103 0.248s-0.155 0.103-0.248 0.103c-0.093 0-0.182-0.037-0.248-0.103s-0.103-0.155-0.103-0.248v-4.026c-0.022-0.55-0.257-1.071-0.654-1.452s-0.927-0.595-1.478-0.595c-0.551 0-1.080 0.213-1.478 0.595s-0.632 0.902-0.654 1.452v1.123c0.014 0.116 0.021 0.234 0.021 0.351v1.131c0 0.093-0.037 0.182-0.103 0.248s-0.155 0.103-0.248 0.103h-0.021c-0.093 0-0.182-0.037-0.248-0.103s-0.103-0.155-0.103-0.248v-1.433c-0.076-0.533-0.35-1.018-0.769-1.357s-0.95-0.506-1.488-0.469c-0.537 0.037-1.041 0.277-1.408 0.671s-0.573 0.912-0.574 1.451v8.704c0 0.093-0.037 0.182-0.103 0.248s-0.155 0.103-0.248 0.103c-0.093 0-0.182-0.037-0.248-0.103s-0.103-0.155-0.103-0.248v-4.913c-0.024-0.55-0.259-1.070-0.658-1.451s-0.928-0.592-1.479-0.591c-0.551 0.001-1.080 0.216-1.476 0.598s-0.629 0.904-0.65 1.454v4.306c0.054 3.16 1.347 6.172 3.601 8.388s5.288 3.457 8.448 3.457 6.194-1.242 8.448-3.457c2.254-2.216 3.547-5.228 3.601-8.388v-4.913c-0.006-0.562-0.233-1.1-0.632-1.495s-0.939-0.617-1.501-0.617z"></path>
     <path d="M24.471 2.329c0.26 0.26 0.26 0.682 0 0.943l-0.862 0.862h7.724c0.368 0 0.667 0.298 0.667 0.667s-0.298 0.667-0.667 0.667h-7.724l0.862 0.862c0.26 0.26 0.26 0.682 0 0.943s-0.682 0.26-0.943 0l-2-2c-0.26-0.26-0.26-0.682 0-0.943l2-2c0.26-0.26 0.682-0.26 0.943 0zM28.862 7.662c0.26-0.26 0.683-0.26 0.943 0l2 2c0.26 0.26 0.26 0.682 0 0.943l-2 2c-0.26 0.26-0.683 0.26-0.943 0s-0.26-0.682 0-0.943l0.862-0.862h-7.724c-0.368 0-0.667-0.298-0.667-0.667s0.299-0.667 0.667-0.667h7.724l-0.862-0.862c-0.26-0.26-0.26-0.682 0-0.943z"></path>
    </symbol>
    <symbol id="close" viewBox="0 0 32 32">
      <path d="M2.817 28.748c-0.672-0.672-0.672-1.761 0-2.433l21.898-21.898c0.672-0.672 1.761-0.672 2.433 0s0.672 1.761 0 2.433l-21.898 21.898c-0.672 0.672-1.761 0.672-2.433 0z"></path>
      <path d="M27.912 28.748c0.672-0.672 0.672-1.761 0-2.433l-21.898-21.898c-0.672-0.672-1.761-0.672-2.433 0s-0.672 1.761 0 2.433l21.898 21.898c0.672 0.672 1.761 0.672 2.433 0z"></path>
    </symbol>
    <symbol id="plus" viewBox="0 0 32 32">
      <path d="M0 16c0-0.884 0.716-1.6 1.6-1.6h28.8c0.884 0 1.6 0.716 1.6 1.6s-0.716 1.6-1.6 1.6h-28.8c-0.884 0-1.6-0.716-1.6-1.6z"></path>
      <path d="M16 32c0.884 0 1.6-0.716 1.6-1.6v-28.8c0-0.884-0.716-1.6-1.6-1.6s-1.6 0.716-1.6 1.6v28.8c0 0.884 0.716 1.6 1.6 1.6z"></path>
    </symbol>
    <symbol id="minus" viewBox="0 0 32 32">
      <path d="M0 16c0-0.884 0.716-1.6 1.6-1.6h28.8c0.884 0 1.6 0.716 1.6 1.6s-0.716 1.6-1.6 1.6h-28.8c-0.884 0-1.6-0.716-1.6-1.6z"></path>
    </symbol>
    <symbol id="advantage-1" viewBox="0 0 31 32">
      <path stroke-linejoin="miter" stroke-linecap="butt" stroke-miterlimit="4" stroke-width="0.5161" d="M30.42 15.309l-14.374-14.374c-0.261-0.268-0.695-0.268-0.955 0l-14.374 14.374c-0.268 0.261-0.268 0.695 0 0.955l2.7 2.7c-0.007 0.123-0.007 0.246-0.007 0.369 0 6.818 5.551 12.369 12.369 12.369s12.369-5.551 12.369-12.369c0-0.261-0.007-0.521-0.022-0.782l2.287-2.287c0.268-0.261 0.268-0.695 0.007-0.955zM4.813 20.36l9.937 9.937c-5.247-0.485-9.445-4.683-9.937-9.937zM16.35 30.334l10.437-10.437c-0.282 5.624-4.813 10.154-10.437 10.437zM27.909 16.865l-11.645 11.638v-7.324c0-0.413-0.34-0.753-0.753-0.753s-0.753 0.34-0.753 0.753v7.216l-12.601-12.608 13.411-13.418 13.418 13.418-1.078 1.078z"></path>
      <path stroke-linejoin="miter" stroke-linecap="butt" stroke-miterlimit="4" stroke-width="0.5161" d="M15.568 16.843c-0.536 0-0.977 0.434-0.977 0.977 0 0.536 0.434 0.977 0.977 0.977 0.536 0 0.977-0.434 0.977-0.977s-0.442-0.977-0.977-0.977z"></path>
    </symbol>
    <symbol id="advantage-2" viewBox="0 0 45 32">
      <path d="M43.884 31.697h-33.982c-0.361 0-0.7-0.197-0.886-0.514s-0.186-0.711 0-1.018l16.996-29.429c0.186-0.317 0.525-0.514 0.886-0.514s0.7 0.197 0.887 0.514l16.996 29.429c0.186 0.317 0.186 0.711 0 1.018-0.197 0.317-0.525 0.514-0.897 0.514zM11.675 29.65h30.436l-15.212-26.364-15.223 26.364z"></path>
      <path d="M18.011 31.697c-0.361 0-0.7-0.197-0.886-0.514l-16.985-29.429c-0.186-0.317-0.186-0.711 0-1.018 0.186-0.317 0.525-0.514 0.886-0.514h33.982c0.361 0 0.7 0.197 0.886 0.514s0.186 0.711 0 1.018l-16.996 29.429c-0.175 0.317-0.514 0.514-0.887 0.514zM2.799 2.268l15.223 26.364 15.223-26.364h-30.447z"></path>
    </symbol>
    <symbol id="advantage-3" viewBox="0 0 31 32">
      <path stroke-linejoin="miter" stroke-linecap="butt" stroke-miterlimit="4" stroke-width="0.4923" d="M23.579 31.609c0.214-0.114 0.35-0.343 0.35-0.586v-6.331c0.336-0.086 0.665-0.186 0.993-0.314 0.343-0.129 0.514-0.514 0.386-0.865-0.129-0.343-0.514-0.514-0.865-0.386-0.171 0.064-0.343 0.121-0.514 0.179-0.436 0.136-0.886 0.222-1.336 0.272-1.293 0.143-2.608-0.064-3.83-0.607-1.808-0.807-3.201-2.279-3.908-4.13s-0.65-3.873 0.157-5.681c0.807-1.808 2.279-3.201 4.13-3.908 1.136-0.436 2.315-0.572 3.451-0.443 0.457 0.050 0.9 0.143 1.336 0.271 2.129 0.643 3.951 2.229 4.809 4.459 0.129 0.343 0.514 0.514 0.865 0.386 0.343-0.129 0.514-0.514 0.386-0.865-1.058-2.765-3.38-4.694-6.052-5.366v-6.331c0-0.243-0.136-0.472-0.35-0.586s-0.479-0.1-0.686 0.036l-22.115 14.819c-0.186 0.121-0.293 0.336-0.293 0.557s0.107 0.429 0.293 0.557l22.108 14.826c0.207 0.136 0.472 0.15 0.686 0.036zM2.357 16.189l20.243-13.576v4.852c-1.293-0.122-2.629 0.043-3.93 0.543-3.487 1.336-5.638 4.666-5.638 8.196 0 1.036 0.186 2.094 0.579 3.115 0.836 2.186 2.472 3.916 4.609 4.873 1.393 0.622 2.894 0.872 4.373 0.729v4.845l-20.235-13.576z"></path>
    </symbol>
    <symbol id="advantage-4" viewBox="0 0 32 32">
      <path stroke-linejoin="miter" stroke-linecap="butt" stroke-miterlimit="4" stroke-width="0.5161" d="M16 0.734c-8.299 0-15.087 6.555-15.468 14.76-0.008 0.241-0.016 0.483-0.016 0.724s0.008 0.49 0.016 0.724c0.039 0.794 0.132 1.573 0.288 2.328 0.101 0.49 0.218 0.981 0.366 1.456 0.21 0.701 0.475 1.386 0.786 2.040 0.234 0.498 0.498 0.989 0.778 1.456 1.347 2.219 3.238 4.079 5.48 5.387 0.467 0.272 0.958 0.522 1.456 0.747 0.677 0.304 1.378 0.561 2.094 0.763 0.475 0.132 0.965 0.249 1.456 0.335 0.662 0.117 1.347 0.195 2.040 0.234 0.241 0.008 0.483 0.016 0.724 0.016s0.49-0.008 0.724-0.016c8.205-0.381 14.76-7.178 14.76-15.468 0-8.54-6.944-15.484-15.484-15.484zM8.231 27.895c-1.464-0.981-2.74-2.226-3.744-3.674h3.744v3.674zM11.781 29.6c-0.724-0.226-1.425-0.514-2.094-0.856v-5.979h-6.088c-0.343-0.654-0.638-1.331-0.88-2.040h9.069v8.875h-0.008zM15.276 30.23c-0.693-0.039-1.37-0.125-2.040-0.257v-10.696h-10.93c-0.171-0.755-0.272-1.534-0.319-2.328h13.289v13.281zM16.724 30.23v-14.737h-14.737c0.381-7.403 6.524-13.304 14.013-13.304 7.738 0 14.028 6.298 14.028 14.028 0 7.497-5.901 13.631-13.304 14.013z"></path>
    </symbol>
    <symbol id="advantage-5" viewBox="0 0 32 32">
      <path stroke-linejoin="miter" stroke-linecap="butt" stroke-miterlimit="4" stroke-width="0.5161" d="M16 31.702c-8.535 0-15.484-6.949-15.484-15.484s6.949-15.484 15.484-15.484c8.535 0 15.484 6.949 15.484 15.484s-6.949 15.484-15.484 15.484zM16 1.899c-7.896 0-14.319 6.422-14.319 14.319s6.422 14.319 14.319 14.319c7.896 0 14.319-6.422 14.319-14.319s-6.422-14.319-14.319-14.319z"></path>
      <path stroke-linejoin="miter" stroke-linecap="butt" stroke-miterlimit="4" stroke-width="0.5161" d="M16 31.702c-6.001 0-10.879-4.878-10.879-10.879 0-3.25 1.432-6.296 3.931-8.374 0.246-0.204 0.618-0.168 0.821 0.077s0.168 0.618-0.077 0.821c-2.232 1.853-3.509 4.576-3.509 7.475 0 5.355 4.359 9.714 9.714 9.714s9.714-4.359 9.714-9.714c0-5.355-4.359-9.714-9.714-9.714-0.323 0-0.583-0.26-0.583-0.583s0.26-0.583 0.583-0.583c6.001 0 10.879 4.878 10.879 10.879s-4.878 10.879-10.879 10.879z"></path>
      <path stroke-linejoin="miter" stroke-linecap="butt" stroke-miterlimit="4" stroke-width="0.5161" d="M12.315 11.964c0.376 0 0.681-0.305 0.681-0.681s-0.305-0.681-0.681-0.681c-0.376 0-0.681 0.305-0.681 0.681s0.305 0.681 0.681 0.681z"></path>
    </symbol>
    <symbol id="menu" viewBox="0 0 30 32">
      <path d="M0 8.381c0-0.842 0.682-1.524 1.524-1.524h27.429c0.842 0 1.524 0.682 1.524 1.524s-0.682 1.524-1.524 1.524h-27.429c-0.842 0-1.524-0.682-1.524-1.524z"></path>
      <path d="M0 16c0-0.842 0.682-1.524 1.524-1.524h27.429c0.842 0 1.524 0.682 1.524 1.524s-0.682 1.524-1.524 1.524h-27.429c-0.842 0-1.524-0.682-1.524-1.524z"></path>
      <path d="M0 23.619c0-0.842 0.375-1.524 0.838-1.524h15.086c0.463 0 0.838 0.682 0.838 1.524s-0.375 1.524-0.838 1.524h-15.086c-0.463 0-0.838-0.682-0.838-1.524z"></path>
    </symbol>
  </defs>
</svg>
