<svg xmlns="http://www.w3.org/2000/svg" aria-hidden="true" style="position:absolute;width:0;height:0;overflow:hidden">
  <defs>
    <symbol id="logo-icon" viewBox="0 0 27 32">
      <path fill="#fff" d="m25.945 6.793-.036-.02L14.651.384a2.766 2.766 0 0 0-2.812 0L.58 6.773c-.273.155-.58.38-.58.83 0 .068.007.13.02.188v7.781a.854.854 0 0 0-.02.188c0 .448.307.675.58.83l5.934 3.362L.58 23.319c-.273.155-.58.421-.58.83 0 .502.304.673.576.827l10.969 6.214c1.09.618 2.31.618 3.4 0l10.964-6.212c.273-.155.58-.346.58-.83a.954.954 0 0 0-.02-.2v-7.977c.013-.063.02-.134.02-.213 0-.506-.268-.656-.527-.8a2.51 2.51 0 0 1-.053-.03l-5.729-3.251 5.729-3.246.035-.02c.264-.148.546-.307.546-.81s-.281-.661-.544-.81zM.046 15.48z" opacity=".8" style="fill:var(--color1, #fff)"/>
      <path fill="#fa7b26" d="M26.469 24.196v-8.37c-.15.548-.451.574-1.202.997a592.688 592.688 0 0 0-5.41 3.07c1.714 1.034 5.203 3.008 5.878 3.365s.735.661.735.937z" style="fill:var(--color2, #fa7b26)"/>
      <path fill="#f8ae39" d="M.02 15.581V7.609c.145.531.436.688 1.163 1.098 2.035 1.147 3.549 2.051 5.148 2.975-1.291.757-5.502 3.09-5.954 3.391-.27.253-.341.381-.357.508v.246c0-.098-.009-.172 0-.246z" style="fill:var(--color3, #f8ae39)"/>
      <path fill="#fc561d" d="M26.489 24.148c0-.485-.307-.675-.58-.83l-11.258-6.389a2.766 2.766 0 0 0-2.812 0L.58 23.318c-.273.155-.58.421-.58.83 0 .505.307.675.58.83l10.964 6.212c1.09.618 2.31.618 3.4 0l10.964-6.212c.273-.155.58-.346.58-.83z" style="fill:var(--color4, #fc561d)"/>
      <path fill="#fa8428" d="M26.489 15.407c0-.541-.307-.675-.58-.83L14.651 8.188a2.766 2.766 0 0 0-2.812 0L.58 14.577c-.273.155-.58.382-.58.83s.307.675.58.83l10.964 6.212c1.09.618 2.31.618 3.4 0l10.964-6.212c.273-.155.58-.306.58-.83z" opacity=".8" style="fill:var(--color5, #fa8428)"/>
      <path fill="#f8b332" d="M26.489 7.602c0-.526-.307-.675-.58-.83L14.651.383a2.766 2.766 0 0 0-2.812 0L.58 6.772c-.273.155-.58.38-.58.83s.307.675.58.83l10.964 6.212c1.09.618 2.31.618 3.4 0l10.964-6.212c.273-.155.58-.304.58-.83z" opacity=".8" style="fill:var(--color6, #f8b332)"/>
    </symbol>
    <symbol id="logo-name" viewBox="0 0 226 32">
      <path d="M200.092 9.597c0-1.265.241-2.453.725-3.562s1.137-2.076 1.961-2.901a9.404 9.404 0 0 1 2.923-1.983 8.817 8.817 0 0 1 3.561-.725h14.033v6.121h-14.033a3.03 3.03 0 0 0-2.816 1.856c-.156.37-.233.768-.233 1.194 0 .427.077.832.233 1.216.156.37.371.697.64.981.284.27.612.483.981.64.371.156.768.235 1.195.235h6.12c1.267 0 2.453.242 3.563.725a8.808 8.808 0 0 1 2.921 1.962 8.81 8.81 0 0 1 1.961 2.922c.484 1.109.725 2.296.725 3.562s-.241 2.453-.725 3.562a9.137 9.137 0 0 1-1.961 2.922 9.265 9.265 0 0 1-2.921 1.962 8.83 8.83 0 0 1-3.563.725h-13.585V24.89h13.585a3.022 3.022 0 0 0 2.816-1.856c.157-.37.235-.768.235-1.194s-.079-.825-.235-1.194a2.81 2.81 0 0 0-.661-.96c-.271-.284-.591-.505-.96-.661s-.768-.235-1.195-.235h-6.12a8.81 8.81 0 0 1-3.561-.725 9.566 9.566 0 0 1-2.923-1.962 9.6 9.6 0 0 1-1.961-2.922 8.957 8.957 0 0 1-.725-3.583zM198.707 27.875a15.609 15.609 0 0 1-4.777 2.815 15.647 15.647 0 0 1-5.481.981 15.29 15.29 0 0 1-4.202-.576 16.099 16.099 0 0 1-3.775-1.578c-1.166-.697-2.232-1.528-3.199-2.495s-1.799-2.033-2.495-3.199a16.712 16.712 0 0 1-1.6-3.775c-.37-1.351-.555-2.751-.555-4.201s.185-2.851.555-4.201a16.19 16.19 0 0 1 1.6-3.775c.697-1.18 1.528-2.254 2.495-3.22s2.033-1.792 3.199-2.474a15.533 15.533 0 0 1 3.775-1.6 15.29 15.29 0 0 1 4.202-.576c1.89 0 3.718.327 5.481.981a15.058 15.058 0 0 1 4.777 2.815l-3.243 5.332a9.019 9.019 0 0 0-3.177-2.218 9.61 9.61 0 0 0-3.838-.789c-1.351 0-2.616.256-3.797.768s-2.211 1.209-3.093 2.09a9.588 9.588 0 0 0-2.09 3.092c-.512 1.18-.768 2.438-.768 3.775s.256 2.595.768 3.775c.512 1.166 1.208 2.19 2.09 3.071s1.912 1.578 3.093 2.09a9.436 9.436 0 0 0 3.797.768 9.836 9.836 0 0 0 3.838-.768 9.262 9.262 0 0 0 3.177-2.239l3.243 5.332zM168.591 31.01h-6.121V.427h6.121V31.01zM156.99 31.01h-6.1V9.171c0-.427-.085-.825-.256-1.194a2.823 2.823 0 0 0-.661-.96c-.27-.284-.59-.505-.96-.661s-.768-.235-1.194-.235a3.02 3.02 0 0 0-2.815 1.856c-.157.37-.235.768-.235 1.194V31.01h-6.121V9.171c0-.427-.078-.825-.235-1.194s-.377-.69-.661-.96c-.27-.284-.59-.505-.96-.661s-.768-.235-1.194-.235a3.017 3.017 0 0 0-2.175.896 3.042 3.042 0 0 0-.875 2.154V31.01h-6.121V9.171c0-1.265.235-2.453.704-3.562a9.258 9.258 0 0 1 1.962-2.922 9.107 9.107 0 0 1 2.922-1.962A8.975 8.975 0 0 1 135.598 0c1.137 0 2.232.206 3.285.619a8.756 8.756 0 0 1 2.837 1.749 8.81 8.81 0 0 1 2.815-1.749A8.93 8.93 0 0 1 147.82 0c1.265 0 2.453.242 3.562.725a8.812 8.812 0 0 1 2.922 1.962 8.812 8.812 0 0 1 1.962 2.922 8.822 8.822 0 0 1 .725 3.562V31.01zM122.61 15.847c0 1.45-.192 2.851-.576 4.202a16.099 16.099 0 0 1-1.578 3.775c-.682 1.166-1.507 2.232-2.474 3.199s-2.033 1.799-3.199 2.495a15.522 15.522 0 0 1-3.775 1.578c-1.351.384-2.751.576-4.201.576s-2.851-.192-4.201-.576a16.081 16.081 0 0 1-3.775-1.578c-1.166-.697-2.232-1.528-3.199-2.495s-1.799-2.033-2.495-3.199a16.712 16.712 0 0 1-1.6-3.775c-.37-1.351-.554-2.751-.554-4.202s.185-2.851.554-4.201a16.19 16.19 0 0 1 1.6-3.775c.697-1.166 1.528-2.232 2.495-3.199s2.033-1.792 3.199-2.474A16.039 16.039 0 0 1 102.606.62c1.351-.384 2.751-.576 4.201-.576s2.851.192 4.201.576c1.351.37 2.609.896 3.775 1.578s2.232 1.507 3.199 2.474a15.522 15.522 0 0 1 4.052 6.974c.384 1.351.576 2.751.576 4.201zm-6.078 0a9.383 9.383 0 0 0-.768-3.775 9.572 9.572 0 0 0-2.09-3.092 9.566 9.566 0 0 0-3.093-2.09 9.38 9.38 0 0 0-3.775-.768c-1.351 0-2.616.256-3.796.768s-2.211 1.209-3.092 2.09a9.572 9.572 0 0 0-2.09 3.092c-.512 1.18-.768 2.438-.768 3.775s.256 2.595.768 3.775c.512 1.166 1.209 2.19 2.09 3.071s1.912 1.578 3.092 2.09a9.435 9.435 0 0 0 3.796.768 9.383 9.383 0 0 0 3.775-.768 9.587 9.587 0 0 0 3.093-2.09 9.953 9.953 0 0 0 2.09-3.071 9.38 9.38 0 0 0 .768-3.775zM86.951 31.01h-6.547L68.61 10.877V31.01h-6.121V.427h6.547L80.83 20.581V.427h6.121V31.01zM58.458 15.847c0 1.45-.192 2.851-.576 4.202a16.099 16.099 0 0 1-1.578 3.775c-.683 1.166-1.507 2.232-2.474 3.199s-2.033 1.799-3.199 2.495a15.522 15.522 0 0 1-3.775 1.578c-1.351.384-2.751.576-4.201.576s-2.851-.192-4.201-.576a16.099 16.099 0 0 1-3.775-1.578c-1.166-.697-2.232-1.528-3.199-2.495s-1.799-2.033-2.495-3.199a16.71 16.71 0 0 1-1.599-3.775c-.37-1.351-.555-2.751-.555-4.202s.185-2.851.555-4.201a16.23 16.23 0 0 1 1.599-3.775c.697-1.166 1.528-2.232 2.495-3.199s2.033-1.792 3.199-2.474A16.039 16.039 0 0 1 38.454.62c1.351-.384 2.751-.576 4.201-.576s2.851.192 4.201.576c1.351.37 2.609.896 3.775 1.578s2.232 1.507 3.199 2.474a15.561 15.561 0 0 1 4.052 6.974c.384 1.351.576 2.751.576 4.201zm-6.079 0a9.383 9.383 0 0 0-.768-3.775 9.572 9.572 0 0 0-2.09-3.092 9.566 9.566 0 0 0-3.093-2.09 9.38 9.38 0 0 0-3.775-.768c-1.351 0-2.616.256-3.796.768s-2.211 1.209-3.093 2.09a9.572 9.572 0 0 0-2.09 3.092c-.512 1.18-.768 2.438-.768 3.775s.256 2.595.768 3.775c.512 1.166 1.209 2.19 2.09 3.071s1.912 1.578 3.093 2.09a9.431 9.431 0 0 0 3.796.768 9.383 9.383 0 0 0 3.775-.768 9.587 9.587 0 0 0 3.093-2.09 9.953 9.953 0 0 0 2.09-3.071 9.38 9.38 0 0 0 .768-3.775zM0 9.597c0-1.265.242-2.453.725-3.562s1.137-2.076 1.962-2.901c.839-.839 1.813-1.5 2.922-1.983S7.905.426 9.171.426h14.033v6.121H9.171a3.017 3.017 0 0 0-2.175.896 3.024 3.024 0 0 0-.875 2.154c0 .427.078.832.235 1.216.156.37.37.697.64.981.284.27.611.483.981.64s.768.235 1.194.235h6.121c1.265 0 2.453.242 3.562.725a8.812 8.812 0 0 1 2.922 1.962 8.812 8.812 0 0 1 1.962 2.922c.483 1.109.725 2.296.725 3.562s-.242 2.453-.725 3.562a9.107 9.107 0 0 1-1.962 2.922 9.258 9.258 0 0 1-2.922 1.962 8.822 8.822 0 0 1-3.562.725H1.707V24.89h13.585c.427 0 .825-.078 1.194-.235s.69-.369.96-.64a3.042 3.042 0 0 0 .896-2.175 3.02 3.02 0 0 0-.235-1.194 2.823 2.823 0 0 0-.661-.96c-.27-.284-.59-.505-.96-.661s-.768-.235-1.194-.235H9.171c-1.265 0-2.453-.242-3.562-.725s-2.083-1.137-2.922-1.962a9.585 9.585 0 0 1-1.962-2.922A8.975 8.975 0 0 1 0 9.598z"/>
    </symbol>
    <symbol id="arrow" viewBox="0 0 34 32">
      <path d="M32.305 2.133A2.133 2.133 0 0 0 30.172 0h-19.2a2.133 2.133 0 0 0 0 4.266h17.067v17.067a2.133 2.133 0 0 0 4.266 0v-19.2zM3.947 31.375 31.68 3.642 28.663.625.93 28.358l3.017 3.017z"/>
    </symbol>
    <symbol id="arrow-left" viewBox="0 0 19 32">
      <path d="M14.464 31.364.637 17.537a2.172 2.172 0 0 1 0-3.073L14.464.637a2.172 2.172 0 1 1 3.073 3.073L5.246 16.001l12.291 12.291a2.174 2.174 0 0 1-3.073 3.073z"/>
    </symbol>
    <symbol id="arrow-right" viewBox="0 0 19 32">
      <path d="m4.282 31.364 13.827-13.827a2.172 2.172 0 0 0 0-3.073L4.282.637A2.172 2.172 0 1 0 1.209 3.71L13.5 16.001 1.209 28.292a2.172 2.172 0 1 0 3.073 3.073z"/>
    </symbol>
    <symbol id="arrow-button" viewBox="0 0 32 32">
      <path d="M32.001 2.946A2.462 2.462 0 0 0 29.539.484H7.385a2.462 2.462 0 0 0 0 4.924h19.692V25.1a2.462 2.462 0 1 0 4.924 0V2.946zM5.171 30.795 31.28 4.686l-3.481-3.481L1.691 27.313l3.481 3.481z"/>
    </symbol>
    <symbol id="sun" viewBox="0 0 34 32">
      <path d="M18.108 30.86a1.14 1.14 0 0 1-2.28 0v-3.546a1.14 1.14 0 0 1 2.28 0v3.546zm6.056-6.053a1.14 1.14 0 1 1 1.612-1.613l2.507 2.507a1.14 1.14 0 1 1-1.613 1.612l-2.506-2.506zM7.267 27.313a1.138 1.138 0 0 1-1.612 0 1.142 1.142 0 0 1 0-1.612l2.507-2.507a1.14 1.14 0 1 1 1.612 1.613l-2.508 2.506zm9.672-19.248a8.047 8.047 0 0 0-8.042 8.043 8.046 8.046 0 0 0 8.042 8.042 8.047 8.047 0 0 0 8.043-8.042 8.047 8.047 0 0 0-8.043-8.043zm0 2.28c3.181 0 5.764 2.583 5.764 5.764s-2.583 5.763-5.764 5.763c-3.18 0-5.763-2.582-5.763-5.763s2.583-5.764 5.763-5.764zm11.344 6.795a1.14 1.14 0 0 1 0-2.28h3.546a1.14 1.14 0 0 1 0 2.28h-3.546zm-26.175 0a1.14 1.14 0 0 1 0-2.28h3.546a1.14 1.14 0 0 1 0 2.28H2.108zM5.655 6.298a1.142 1.142 0 0 1 0-1.612 1.138 1.138 0 0 1 1.612 0l2.507 2.506a1.143 1.143 0 0 1 0 1.613 1.142 1.142 0 0 1-1.612 0L5.655 6.298zm20.121 2.508a1.14 1.14 0 1 1-1.612-1.613l2.506-2.506a1.14 1.14 0 1 1 1.613 1.612l-2.507 2.507zm-7.668-4.12a1.14 1.14 0 0 1-2.28 0V1.14a1.14 1.14 0 0 1 2.28 0v3.546z"/>
    </symbol>
    <symbol id="moon" viewBox="0 0 32 32">
      <path d="M17.066 27.731c-7.054 0-12.8-5.746-12.8-12.805S9.75 2.303 16.752 2.135c.379-.014.692.16.903.444s.271.655.154 1a10.672 10.672 0 0 0-.556 3.384c0 5.857 4.763 10.618 10.618 10.618h.271c.35 0 .686.168.889.453.205.285.262.655.145.986a12.772 12.772 0 0 1-12.127 8.714l.017-.003zM15.329 4.459c-5.076.823-8.868 5.17-8.868 10.472 0 5.857 4.763 10.618 10.612 10.618 4.062 0 7.708-2.296 9.481-5.849-6.438-.672-11.472-6.125-11.472-12.734 0-.838.08-1.678.248-2.501l-.001-.006z"/>
    </symbol>
    <symbol id="phone" viewBox="0 0 32 32">
      <path d="M21.65 22.109c-.476.859-1.532 1.218-2.402.801-3.319-1.601-8.54-6.823-10.165-10.176-.418-.87-.07-1.938.801-2.414l3.435-1.88-5.72-8.459-4.177 3.052C.115 5.446-.964 9.902.869 13.627c3.4 6.939 10.733 14.168 17.823 17.591a7.93 7.93 0 0 0 3.493.801c2.599 0 5.152-1.242 6.788-3.493l3.028-4.142-8.47-5.732-1.88 3.458zM29.029 14.334l2.298-.322C30.355 7.101 24.848 1.594 17.937.62l-.323 2.297c5.892.83 10.586 5.525 11.416 11.416z"/>
      <path d="m23.483 15.123 2.298-.322c-.628-4.457-4.177-8.006-8.634-8.634l-.322 2.297a7.86 7.86 0 0 1 6.659 6.659z"/>
    </symbol>
    <symbol id="email" viewBox="0 0 32 32">
      <path d="M17.205 18.34 28.547 6.998a3.72 3.72 0 0 0-2.022-.598H5.871c-.722 0-1.394.212-1.968.566L15.279 18.34c.515.515 1.415.516 1.927 0zM30.263 23.996V10.137c0-.648-.165-1.259-.46-1.792l-8.777 8.777 8.736 8.736a3.716 3.716 0 0 0 .501-1.862z"/>
      <path d="M26.526 27.733c.717 0 1.385-.206 1.954-.56l-8.754-8.754-1.218 1.218a3.173 3.173 0 0 1-2.267.938c-.855 0-1.66-.33-2.267-.938l-1.264-1.264-8.797 8.801a3.7 3.7 0 0 0 1.96.56h20.653zM2.133 10.137v13.859c0 .675.183 1.311.496 1.857l8.777-8.777L2.629 8.29a3.71 3.71 0 0 0-.496 1.848z"/>
    </symbol>
    <symbol id="location" viewBox="0 0 32 32">
      <path d="M15.032 5.892a4.878 4.878 0 0 1 4.88 4.885 4.876 4.876 0 0 1-4.889 4.876 4.885 4.885 0 0 1-4.873-4.893 4.883 4.883 0 0 1 4.881-4.869zm-3.429 16.701 2.923 3.883a.618.618 0 0 0 1.002 0l2.933-3.883a10.56 10.56 0 0 1 3.816 1.457c2.323 1.584 1.565 3.378-.962 4.582-3.448 1.645-9.118 1.645-12.566 0-2.526-1.209-3.269-3.001-.962-4.585a10.556 10.556 0 0 1 3.816-1.455zm6.088-1.047.018-.024 4.155-5.491a8.323 8.323 0 0 0 1.796-5.27 8.627 8.627 0 1 0-17.256 0 8.325 8.325 0 0 0 1.796 5.27l6.832 9.041 2.659-3.526z"/>
    </symbol>
    <symbol id="fintech" viewBox="0 0 31 32">
      <path d="M15.587 23.318a4.58 4.58 0 1 0 .007-9.163 4.58 4.58 0 0 0-.007 9.164zm0-8.575a3.998 3.998 0 1 1-3.993 3.983 4 4 0 0 1 3.993-3.983zm-3.142 4.275h1.519c.066 1.802.734 3.128 1.608 3.128s1.554-1.324 1.608-3.128h1.429a.29.29 0 1 0 0-.582h-1.43c-.066-1.802-.734-3.131-1.608-3.131s-1.554 1.329-1.608 3.131h-1.518a.291.291 0 0 0 0 .582zm3.142 2.559c-.408 0-.963-.96-1.026-2.545h2.035c-.061 1.585-.621 2.545-1.01 2.545zm0-5.676c.389 0 .963.963 1.026 2.548h-2.067c.063-1.585.618-2.548 1.042-2.548zM1.715 26.145c0 1.012.817 1.837 1.83 1.846H7.78A2.292 2.292 0 0 0 9.302 32h12.572a2.291 2.291 0 0 0 1.522-4.009h4.235a1.845 1.845 0 0 0 1.844-1.846V11.344a1.842 1.842 0 0 0-1.844-1.857H3.545a1.847 1.847 0 0 0-1.83 1.857v14.801zm21.871 3.559c0 .945-.768 1.713-1.713 1.713H9.301a1.713 1.713 0 0 1 0-3.426h12.572c.945.001 1.71.768 1.713 1.713zM2.298 11.345a1.264 1.264 0 0 1 1.247-1.275h24.086a1.264 1.264 0 0 1 1.247 1.275v14.801a1.26 1.26 0 0 1-1.247 1.263H3.545a1.264 1.264 0 0 1-1.262-1.263l.015-14.801zm10.007-6.941c.615-.52.692-1.439.175-2.055a6.606 6.606 0 0 0-10.102 0 1.462 1.462 0 0 0 .168 2.055c.262.223.596.347.94.345h.121c.385-.031.742-.214.991-.508a3.698 3.698 0 0 1 5.648 0c.28.323.688.507 1.116.501.344.001.677-.119.944-.338zm-1.608-.545a4.274 4.274 0 0 0-6.534 0 .839.839 0 0 1-.594.303.873.873 0 0 1-.734-1.436 6.025 6.025 0 0 1 9.192 0 .867.867 0 0 1-.098 1.238.896.896 0 0 1-1.231-.105zM7.43 3.86v-.001A3.74 3.74 0 0 0 4.556 5.22a1.452 1.452 0 0 0 .163 2.078c.302.252.692.37 1.082.331.39-.041.747-.236.992-.543a.806.806 0 0 1 1.274 0c.277.334.686.526 1.119.524a1.455 1.455 0 0 0 1.119-2.389 3.74 3.74 0 0 0-2.874-1.349v-.01zm2.331 2.965v-.001a.899.899 0 0 1-1.231-.112 1.385 1.385 0 0 0-1.084-.521c-.422 0-.822.191-1.084.521a.875.875 0 0 1-1.344-1.119 3.137 3.137 0 0 1 4.855 0 .878.878 0 0 1-.112 1.243v-.01zm18.874-2.431v-.001a1.462 1.462 0 0 0 .16-2.044 6.606 6.606 0 0 0-10.101 0 1.462 1.462 0 0 0 .168 2.055c.262.223.596.347.94.345h.121c.385-.031.742-.214.991-.508a3.698 3.698 0 0 1 5.648 0c.28.323.688.507 1.116.501.344.001.677-.119.944-.338l.015-.01zm-1.608-.544v-.003a4.27 4.27 0 0 0-6.533 0 .843.843 0 0 1-.594.303.875.875 0 0 1-.734-1.436 6.02 6.02 0 0 1 9.19 0 .866.866 0 0 1-.112 1.25.896.896 0 0 1-1.231-.105l.015-.009zm-3.267 0 .001-.003a3.747 3.747 0 0 0-2.876 1.361 1.455 1.455 0 0 0 .165 2.078 1.458 1.458 0 0 0 2.073-.212.808.808 0 0 1 1.275 0 1.456 1.456 0 1 0 2.237-1.865 3.74 3.74 0 0 0-2.89-1.337l.015-.02zm2.331 2.965.001-.003A.9.9 0 0 1 24.86 6.7a1.388 1.388 0 0 0-2.168 0 .875.875 0 0 1-1.343-1.119 3.136 3.136 0 0 1 4.855 0 .875.875 0 0 1-.128 1.254l.015-.02zM4.218 25.407V12.072a.293.293 0 0 1 .291-.291h6.289a.291.291 0 0 1 0 .582H4.801v12.752h2.331a.29.29 0 1 1 0 .582H4.51a.29.29 0 0 1-.291-.291zm15.868-13.335a.294.294 0 0 1 .291-.291h6.289c.16.001.29.131.291.291v13.335a.29.29 0 0 1-.291.291h-2.611a.291.291 0 0 1 0-.582h2.331V12.364h-6.009a.295.295 0 0 1-.291-.292z"/>
    </symbol>
    <symbol id="healthcare" viewBox="0 0 31 32">
      <path d="M1.234 26.824h5.149a2.618 2.618 0 0 0 1.674 4.629h14.518a2.617 2.617 0 0 0 1.67-4.634h5.154a1.915 1.915 0 0 0 1.916-1.914V7.423a1.915 1.915 0 0 0-1.916-1.916h-2.892a.287.287 0 0 0-.138.041 12.412 12.412 0 0 0-.206-.525c-.939-2.161-2.621-3.685-4.5-4.085-3.347-.706-5.626 1.479-6.347 2.287-.721-.806-3-2.993-6.347-2.287-1.88.404-3.561 1.924-4.5 4.085-.08.186-.153.375-.218.564a.297.297 0 0 0-.198-.08H1.23A1.915 1.915 0 0 0-.685 7.423v17.485c0 .51.201.997.563 1.357.36.36.848.561 1.357.56h.001zm23.357 2.016a2.016 2.016 0 0 1-2.016 2.017H8.057a2.017 2.017 0 0 1 0-4.033h14.518a2.013 2.013 0 0 1 2.016 2.016zM5.025 5.261c.859-1.98 2.383-3.371 4.07-3.731l-.002.002a5.86 5.86 0 0 1 1.21-.13c2.956 0 4.689 2.364 4.771 2.476v.002a.315.315 0 0 0 .491 0c.092-.129 2.291-3.126 5.977-2.347 1.686.358 3.226 1.75 4.07 3.731.963 2.218.891 4.609-.189 6.404-2.081 3.448-8.872 9.219-10.082 10.252-1.234-1.033-8.021-6.804-10.082-10.252-1.125-1.797-1.198-4.187-.233-6.406zM-.077 7.423c0-.724.587-1.311 1.311-1.311h2.848a7.385 7.385 0 0 0 .617 5.872c2.33 3.864 10.082 10.291 10.424 10.566v-.002a.307.307 0 0 0 .404 0c.327-.274 8.094-6.702 10.424-10.566v.002a7.398 7.398 0 0 0 .617-5.867h2.848c.723 0 1.31.587 1.31 1.31v17.482a1.309 1.309 0 0 1-1.326 1.304H1.235a1.32 1.32 0 0 1-.929-.383 1.317 1.317 0 0 1-.383-.928V7.425zm1.411 17.083.002-16.68a.302.302 0 0 1 .604 0v16.369h26.752V7.826a.302.302 0 1 1 .604 0v16.68a.3.3 0 0 1-.086.215.307.307 0 0 1-.216.088H1.637a.299.299 0 0 1-.302-.303h-.002zm7.437-12.768h3.105c.33-.002.643-.148.851-.404l.537 1.815c.124.445.508.765.968.808h.097c.426-.008.812-.26.988-.65l.806-1.612h1.11c.34.009.667-.139.883-.404.204.293.538.469.895.472l2.851.032a1.108 1.108 0 0 0 0-2.217l-2.088-.024-.673-1.742h-.002a1.102 1.102 0 0 0-1.053-.711 1.119 1.119 0 0 0-1.028.747l-.564 1.614h-1.016V9.46a1.055 1.055 0 0 0-.851.375l-.762-2.625a1.11 1.11 0 0 0-2.13 0l-.653 2.299h-2.27a1.11 1.11 0 0 0 0 2.219v.012zm0-1.614h2.512a.295.295 0 0 0 .29-.221l.718-2.516a.504.504 0 0 1 .972 0l.975 3.322a.3.3 0 0 0 .266.213.295.295 0 0 0 .295-.169l.198-.404-.002.002a.492.492 0 0 1 .46-.283h1.234a.307.307 0 0 0 .287-.201l.625-1.803a.502.502 0 0 1 .943-.017l.75 1.931a.292.292 0 0 0 .278.194l2.291.029a.506.506 0 0 1 .499.508.512.512 0 0 1-.511.501l-2.823-.033a.501.501 0 0 1-.464-.322l-.153-.404a.315.315 0 0 0-.29-.194.305.305 0 0 0-.278.206l-.109.307a.495.495 0 0 1-.479.339h-1.304a.302.302 0 0 0-.274.169l-.883 1.807a.509.509 0 0 1-.452.281h-.044a.501.501 0 0 1-.44-.358l-.779-2.642h.002a.31.31 0 0 0-.29-.218.309.309 0 0 0-.287.222l-.126.428h.002a.504.504 0 0 1-.484.366H8.79a.504.504 0 1 1 0-1.008l-.02-.033z"/>
    </symbol>
    <symbol id="ecommerce" viewBox="0 0 31 32">
      <path d="m17.389 18.398-.613-2.433v-.002a.407.407 0 0 0-.396-.307h-2.356c-.222 0-.403.186-.403.415s.181.415.403.415h2.017l1.911 7.623v.98c.005.678.537 1.225 1.194 1.229h6.172c.107 0 .21-.044.285-.122a.424.424 0 0 0 0-.588.398.398 0 0 0-.285-.122h-6.139a.402.402 0 0 1-.388-.399v-.615h6.454a.406.406 0 0 0 .396-.349l.887-5.247a.389.389 0 0 0-.088-.333.363.363 0 0 0-.307-.149h-8.745zm7.527 5.248h-6.211l-1.114-4.417h8.067l-.742 4.417zM19.584 27.765c0 .308.18.587.457.706s.597.054.81-.165c.213-.219.276-.547.161-.832s-.386-.472-.685-.472a.733.733 0 0 0-.525.224.77.77 0 0 0-.217.54zM23.496 27.765c0 .308.181.587.458.706s.596.054.808-.165c.213-.219.276-.547.161-.832s-.386-.472-.685-.472c-.197 0-.386.081-.525.224s-.217.337-.217.54z"/>
      <path d="M9.185 28.945h8.471c.222 0 .403-.187.403-.415s-.181-.415-.403-.415H9.185c-1.56 0-2.824-1.301-2.824-2.907v-.415h10.012c.222 0 .403-.187.403-.415s-.181-.415-.403-.415H6.361V8.184h15.328v8.555c0 .229.181.415.403.415s.403-.187.403-.415v-9.8c-.005-2.062-1.628-3.732-3.63-3.737H9.184c-2.003.005-3.626 1.676-3.63 3.737v18.27c.005 2.062 1.628 3.732 3.63 3.737zm0-24.915h9.681c1.56 0 2.824 1.301 2.824 2.907v.415H6.362v-.415c0-1.606 1.264-2.907 2.824-2.907z"/>
    </symbol>
    <symbol id="quotes" viewBox="0 0 33 32">
      <path d="M13.244 32 7.587 8.225l-1.029 5.526c2.057 0 3.729-.643 5.015-1.928 1.286-1.199 1.929-2.827 1.929-4.884s-.643-3.727-1.929-5.012S8.701-.001 6.816-.001c-2.057 0-3.729.643-5.015 1.928-1.2 1.371-1.8 3.042-1.8 5.012 0 .771.043 1.456.129 2.056s.257 1.328.514 2.185.6 1.885 1.029 3.084l5.4 17.735h6.172zm19.159 0L26.746 8.225l-1.029 5.526c2.057 0 3.729-.643 5.015-1.928 1.286-1.199 1.929-2.827 1.929-4.884s-.643-3.727-1.929-5.012S27.86-.001 25.975-.001c-2.057 0-3.729.643-5.015 1.928-1.2 1.371-1.8 3.042-1.8 5.012 0 .771.043 1.456.129 2.056s.257 1.328.514 2.185.6 1.885 1.029 3.084l5.4 17.735h6.172z"/>
    </symbol>
    <symbol id="drag-hand" viewBox="0 0 32 32">
      <path d="M21.964 13.129c-0.565 0.001-1.106 0.226-1.505 0.625s-0.624 0.941-0.625 1.505v0.853c0 0.093-0.037 0.182-0.103 0.248s-0.155 0.103-0.248 0.103-0.182-0.037-0.248-0.103c-0.066-0.066-0.103-0.155-0.103-0.248v-2.737c0-0.565-0.224-1.107-0.624-1.506s-0.941-0.624-1.506-0.624c-0.565 0-1.107 0.224-1.506 0.624s-0.624 0.941-0.624 1.506v1.232c0 0.093-0.037 0.182-0.103 0.248s-0.155 0.103-0.248 0.103c-0.093 0-0.182-0.037-0.248-0.103s-0.103-0.155-0.103-0.248v-12.56c-0.022-0.55-0.257-1.071-0.654-1.452s-0.927-0.595-1.478-0.595c-0.551 0-1.080 0.213-1.478 0.595s-0.632 0.902-0.654 1.452v1.123c0.014 0.116 0.021 0.234 0.021 0.351v9.665c0 0.093-0.037 0.182-0.103 0.248s-0.155 0.103-0.248 0.103h-0.021c-0.093 0-0.182-0.037-0.248-0.103s-0.103-0.155-0.103-0.248v-9.966c-0.076-0.533-0.35-1.018-0.769-1.357s-0.95-0.506-1.488-0.469c-0.537 0.037-1.041 0.277-1.408 0.671s-0.573 0.912-0.574 1.451v17.238c0 0.093-0.037 0.182-0.103 0.248s-0.155 0.103-0.248 0.103c-0.093 0-0.182-0.037-0.248-0.103s-0.103-0.155-0.103-0.248v-4.913c-0.024-0.55-0.259-1.070-0.658-1.451s-0.928-0.592-1.479-0.591-1.080 0.216-1.476 0.598c-0.396 0.382-0.629 0.904-0.65 1.454v4.306c0.054 3.16 1.347 6.172 3.601 8.388s5.288 3.457 8.448 3.457 6.194-1.242 8.448-3.457c2.254-2.216 3.547-5.228 3.601-8.388v-4.913c-0.006-0.562-0.233-1.1-0.632-1.495s-0.939-0.617-1.501-0.617z"></path>
      <path d="M22.338 0.195c0.26 0.26 0.26 0.682 0 0.943l-0.862 0.862h7.724c0.368 0 0.667 0.298 0.667 0.667s-0.299 0.667-0.667 0.667h-7.724l0.862 0.862c0.26 0.26 0.26 0.682 0 0.943s-0.683 0.26-0.943 0l-2-2c-0.26-0.26-0.26-0.682 0-0.943l2-2c0.26-0.26 0.683-0.26 0.943 0zM26.729 5.529c0.26-0.26 0.683-0.26 0.943 0l2 2c0.26 0.26 0.26 0.682 0 0.943l-2 2c-0.26 0.26-0.683 0.26-0.943 0s-0.26-0.682 0-0.943l0.862-0.862h-7.724c-0.368 0-0.667-0.298-0.667-0.667s0.299-0.667 0.667-0.667h7.724l-0.862-0.862c-0.26-0.26-0.26-0.682 0-0.943z"></path>
    </symbol>
    <symbol id="drag-hand-active" viewBox="0 0 32 32">
     <path d="M21.964 13.129c-0.565 0.001-1.106 0.226-1.505 0.625s-0.624 0.941-0.625 1.505v0.853c0 0.093-0.037 0.182-0.103 0.248s-0.155 0.103-0.248 0.103-0.182-0.037-0.248-0.103c-0.066-0.066-0.103-0.155-0.103-0.248v-2.737c0-0.565-0.224-1.107-0.624-1.506s-0.941-0.624-1.506-0.624c-0.565 0-1.107 0.224-1.506 0.624s-0.624 0.941-0.624 1.506v1.232c0 0.093-0.037 0.182-0.103 0.248s-0.155 0.103-0.248 0.103c-0.093 0-0.182-0.037-0.248-0.103s-0.103-0.155-0.103-0.248v-4.026c-0.022-0.55-0.257-1.071-0.654-1.452s-0.927-0.595-1.478-0.595c-0.551 0-1.080 0.213-1.478 0.595s-0.632 0.902-0.654 1.452v1.123c0.014 0.116 0.021 0.234 0.021 0.351v1.131c0 0.093-0.037 0.182-0.103 0.248s-0.155 0.103-0.248 0.103h-0.021c-0.093 0-0.182-0.037-0.248-0.103s-0.103-0.155-0.103-0.248v-1.433c-0.076-0.533-0.35-1.018-0.769-1.357s-0.95-0.506-1.488-0.469c-0.537 0.037-1.041 0.277-1.408 0.671s-0.573 0.912-0.574 1.451v8.704c0 0.093-0.037 0.182-0.103 0.248s-0.155 0.103-0.248 0.103c-0.093 0-0.182-0.037-0.248-0.103s-0.103-0.155-0.103-0.248v-4.913c-0.024-0.55-0.259-1.070-0.658-1.451s-0.928-0.592-1.479-0.591c-0.551 0.001-1.080 0.216-1.476 0.598s-0.629 0.904-0.65 1.454v4.306c0.054 3.16 1.347 6.172 3.601 8.388s5.288 3.457 8.448 3.457 6.194-1.242 8.448-3.457c2.254-2.216 3.547-5.228 3.601-8.388v-4.913c-0.006-0.562-0.233-1.1-0.632-1.495s-0.939-0.617-1.501-0.617z"></path>
     <path d="M24.471 2.329c0.26 0.26 0.26 0.682 0 0.943l-0.862 0.862h7.724c0.368 0 0.667 0.298 0.667 0.667s-0.298 0.667-0.667 0.667h-7.724l0.862 0.862c0.26 0.26 0.26 0.682 0 0.943s-0.682 0.26-0.943 0l-2-2c-0.26-0.26-0.26-0.682 0-0.943l2-2c0.26-0.26 0.682-0.26 0.943 0zM28.862 7.662c0.26-0.26 0.683-0.26 0.943 0l2 2c0.26 0.26 0.26 0.682 0 0.943l-2 2c-0.26 0.26-0.683 0.26-0.943 0s-0.26-0.682 0-0.943l0.862-0.862h-7.724c-0.368 0-0.667-0.298-0.667-0.667s0.299-0.667 0.667-0.667h7.724l-0.862-0.862c-0.26-0.26-0.26-0.682 0-0.943z"></path>
    </symbol>
  </defs>
</svg>
