<svg aria-hidden="true" style="position: absolute; width: 0; height: 0; overflow: hidden;" version="1.1" xmlns="http://www.w3.org/2000/svg" xmlns:xlink="http://www.w3.org/1999/xlink">
<defs>
<symbol id="logo-icon" viewBox="0 0 27 32">
<path fill="#fff" style="fill: var(--color1, #fff)" opacity="0.8" d="M25.945 6.793c-0.012-0.007-0.024-0.013-0.036-0.020l-11.258-6.389c-0.902-0.512-1.911-0.512-2.812 0l-11.259 6.389c-0.273 0.155-0.58 0.38-0.58 0.83 0 0.068 0.007 0.13 0.020 0.188v7.781c-0.013 0.058-0.020 0.12-0.020 0.188 0 0.448 0.307 0.675 0.58 0.83l5.934 3.362-5.934 3.367c-0.273 0.155-0.58 0.421-0.58 0.83 0 0.502 0.304 0.673 0.576 0.827l10.969 6.214c1.090 0.618 2.31 0.618 3.4 0l10.964-6.212c0.273-0.155 0.58-0.346 0.58-0.83 0-0.073-0.007-0.139-0.020-0.2v-7.977c0.013-0.063 0.020-0.134 0.020-0.213 0-0.506-0.268-0.656-0.527-0.8-0.018-0.010-0.036-0.020-0.053-0.030l-5.729-3.251 5.729-3.246c0.012-0.007 0.023-0.013 0.035-0.020 0.264-0.148 0.546-0.307 0.546-0.81s-0.281-0.661-0.544-0.81zM0.046 15.48c-0.009 0.024-0.016 0.046-0.021 0.069 0.006-0.024 0.013-0.047 0.021-0.069z"></path>
<path fill="#fa7b26" style="fill: var(--color2, #fa7b26)" d="M26.469 24.196v-8.37c-0.15 0.548-0.451 0.574-1.202 0.997-2.104 1.185-3.757 2.116-5.41 3.070 1.714 1.034 5.203 3.008 5.878 3.365s0.735 0.661 0.735 0.937z"></path>
<path fill="#f8ae39" style="fill: var(--color3, #f8ae39)" d="M0.020 15.581v-7.972c0.145 0.531 0.436 0.688 1.163 1.098 2.035 1.147 3.549 2.051 5.148 2.975-1.291 0.757-5.502 3.090-5.954 3.391-0.27 0.253-0.341 0.381-0.357 0.508v0.246c0-0.098-0.009-0.172 0-0.246z"></path>
<path fill="#fc561d" style="fill: var(--color4, #fc561d)" d="M26.489 24.148c0-0.485-0.307-0.675-0.58-0.83l-11.258-6.389c-0.902-0.512-1.911-0.512-2.812 0l-11.259 6.389c-0.273 0.155-0.58 0.421-0.58 0.83 0 0.505 0.307 0.675 0.58 0.83l10.964 6.212c1.090 0.618 2.31 0.618 3.4 0l10.964-6.212c0.273-0.155 0.58-0.346 0.58-0.83z"></path>
<path fill="#fa8428" style="fill: var(--color5, #fa8428)" opacity="0.8" d="M26.489 15.407c0-0.541-0.307-0.675-0.58-0.83l-11.258-6.389c-0.902-0.512-1.911-0.512-2.812 0l-11.259 6.389c-0.273 0.155-0.58 0.382-0.58 0.83s0.307 0.675 0.58 0.83l10.964 6.212c1.090 0.618 2.31 0.618 3.4 0l10.964-6.212c0.273-0.155 0.58-0.306 0.58-0.83z"></path>
<path fill="#f8b332" style="fill: var(--color6, #f8b332)" opacity="0.8" d="M26.489 7.602c0-0.526-0.307-0.675-0.58-0.83l-11.258-6.389c-0.902-0.512-1.911-0.512-2.812 0l-11.259 6.389c-0.273 0.155-0.58 0.38-0.58 0.83s0.307 0.675 0.58 0.83l10.964 6.212c1.090 0.618 2.31 0.618 3.4 0l10.964-6.212c0.273-0.155 0.58-0.304 0.58-0.83z"></path>
</symbol>
<symbol id="logo-name" viewBox="0 0 226 32">
<path d="M200.092 9.597c0-1.265 0.241-2.453 0.725-3.562s1.137-2.076 1.961-2.901c0.84-0.839 1.813-1.5 2.923-1.983 1.109-0.483 2.295-0.725 3.561-0.725h14.033v6.121h-14.033c-0.427 0-0.824 0.078-1.195 0.235-0.369 0.156-0.696 0.377-0.981 0.661-0.269 0.27-0.484 0.59-0.64 0.96s-0.233 0.768-0.233 1.194c0 0.427 0.077 0.832 0.233 1.216 0.156 0.37 0.371 0.697 0.64 0.981 0.284 0.27 0.612 0.483 0.981 0.64 0.371 0.156 0.768 0.235 1.195 0.235h6.12c1.267 0 2.453 0.242 3.563 0.725 1.122 0.469 2.097 1.123 2.921 1.962 0.838 0.825 1.493 1.799 1.961 2.922 0.484 1.109 0.725 2.296 0.725 3.562s-0.241 2.453-0.725 3.562c-0.469 1.109-1.124 2.083-1.961 2.922-0.824 0.825-1.8 1.479-2.921 1.962-1.111 0.483-2.296 0.725-3.563 0.725h-13.585v-6.121h13.585c0.427 0 0.826-0.078 1.195-0.235s0.689-0.369 0.96-0.64c0.284-0.284 0.504-0.611 0.661-0.981s0.235-0.768 0.235-1.194-0.079-0.825-0.235-1.194c-0.156-0.37-0.376-0.69-0.661-0.96-0.271-0.284-0.591-0.505-0.96-0.661s-0.768-0.235-1.195-0.235h-6.12c-1.267 0-2.453-0.242-3.561-0.725-1.111-0.483-2.084-1.137-2.923-1.962-0.824-0.839-1.478-1.813-1.961-2.922-0.484-1.123-0.725-2.318-0.725-3.583z"></path>
<path d="M198.707 27.875c-1.423 1.223-3.016 2.161-4.777 2.815-1.764 0.654-3.592 0.981-5.481 0.981-1.451 0-2.851-0.192-4.202-0.576-1.336-0.37-2.595-0.896-3.775-1.578-1.166-0.697-2.232-1.528-3.199-2.495s-1.799-2.033-2.495-3.199c-0.683-1.18-1.216-2.438-1.6-3.775-0.37-1.351-0.555-2.751-0.555-4.201s0.185-2.851 0.555-4.201c0.384-1.351 0.917-2.609 1.6-3.775 0.697-1.18 1.528-2.254 2.495-3.22s2.033-1.792 3.199-2.474c1.18-0.697 2.438-1.23 3.775-1.6 1.351-0.384 2.751-0.576 4.202-0.576 1.89 0 3.718 0.327 5.481 0.981 1.762 0.64 3.354 1.578 4.777 2.815l-3.243 5.332c-0.894-0.967-1.954-1.706-3.177-2.218-1.222-0.526-2.502-0.789-3.838-0.789-1.351 0-2.616 0.256-3.797 0.768s-2.211 1.209-3.093 2.090c-0.881 0.867-1.578 1.898-2.090 3.092-0.512 1.18-0.768 2.438-0.768 3.775s0.256 2.595 0.768 3.775c0.512 1.166 1.208 2.19 2.090 3.071s1.912 1.578 3.093 2.090c1.18 0.512 2.446 0.768 3.797 0.768 1.336 0 2.616-0.256 3.838-0.768 1.224-0.526 2.283-1.273 3.177-2.239l3.243 5.332z"></path>
<path d="M168.591 31.010h-6.121v-30.583h6.121v30.583z"></path>
<path d="M156.99 31.010h-6.1v-21.839c0-0.427-0.085-0.825-0.256-1.194-0.156-0.37-0.377-0.69-0.661-0.96-0.27-0.284-0.59-0.505-0.96-0.661s-0.768-0.235-1.194-0.235-0.825 0.078-1.194 0.235c-0.37 0.156-0.697 0.377-0.981 0.661-0.27 0.27-0.483 0.59-0.64 0.96s-0.235 0.768-0.235 1.194v21.839h-6.121v-21.839c0-0.427-0.078-0.825-0.235-1.194s-0.377-0.69-0.661-0.96c-0.27-0.284-0.59-0.505-0.96-0.661s-0.768-0.235-1.194-0.235c-0.427 0-0.825 0.078-1.194 0.235s-0.697 0.377-0.981 0.661c-0.27 0.27-0.484 0.59-0.64 0.96s-0.235 0.768-0.235 1.194v21.839h-6.121v-21.839c0-1.265 0.235-2.453 0.704-3.562 0.483-1.123 1.137-2.097 1.962-2.922 0.839-0.839 1.813-1.493 2.922-1.962 1.123-0.483 2.318-0.725 3.583-0.725 1.137 0 2.232 0.206 3.285 0.619 1.052 0.398 1.998 0.981 2.837 1.749 0.839-0.768 1.777-1.351 2.815-1.749 1.052-0.412 2.147-0.619 3.285-0.619 1.265 0 2.453 0.242 3.562 0.725 1.123 0.469 2.097 1.123 2.922 1.962 0.839 0.825 1.493 1.799 1.962 2.922 0.483 1.109 0.725 2.296 0.725 3.562v21.839z"></path>
<path d="M122.61 15.847c0 1.45-0.192 2.851-0.576 4.202-0.37 1.336-0.896 2.595-1.578 3.775-0.682 1.166-1.507 2.232-2.474 3.199s-2.033 1.799-3.199 2.495c-1.166 0.683-2.424 1.209-3.775 1.578-1.351 0.384-2.751 0.576-4.201 0.576s-2.851-0.192-4.201-0.576c-1.337-0.37-2.595-0.896-3.775-1.578-1.166-0.697-2.232-1.528-3.199-2.495s-1.799-2.033-2.495-3.199c-0.683-1.18-1.216-2.438-1.6-3.775-0.37-1.351-0.554-2.751-0.554-4.202s0.185-2.851 0.554-4.201c0.384-1.351 0.917-2.609 1.6-3.775 0.697-1.166 1.528-2.232 2.495-3.199s2.033-1.792 3.199-2.474c1.18-0.682 2.438-1.209 3.775-1.578 1.351-0.384 2.751-0.576 4.201-0.576s2.851 0.192 4.201 0.576c1.351 0.37 2.609 0.896 3.775 1.578s2.232 1.507 3.199 2.474c0.967 0.967 1.791 2.033 2.474 3.199s1.209 2.424 1.578 3.775c0.384 1.351 0.576 2.751 0.576 4.201zM116.532 15.847c0-1.336-0.256-2.595-0.768-3.775-0.512-1.194-1.208-2.225-2.090-3.092-0.867-0.882-1.898-1.578-3.093-2.090-1.18-0.512-2.438-0.768-3.775-0.768-1.351 0-2.616 0.256-3.796 0.768s-2.211 1.209-3.092 2.090c-0.882 0.867-1.578 1.898-2.090 3.092-0.512 1.18-0.768 2.438-0.768 3.775s0.256 2.595 0.768 3.775c0.512 1.166 1.209 2.19 2.090 3.071s1.912 1.578 3.092 2.090c1.18 0.512 2.446 0.768 3.796 0.768 1.336 0 2.595-0.256 3.775-0.768 1.194-0.512 2.225-1.208 3.093-2.090 0.882-0.881 1.578-1.905 2.090-3.071 0.512-1.18 0.768-2.438 0.768-3.775z"></path>
<path d="M86.951 31.010h-6.547l-11.794-20.133v20.133h-6.121v-30.583h6.547l11.794 20.154v-20.154h6.121v30.583z"></path>
<path d="M58.458 15.847c0 1.45-0.192 2.851-0.576 4.202-0.37 1.336-0.896 2.595-1.578 3.775-0.683 1.166-1.507 2.232-2.474 3.199s-2.033 1.799-3.199 2.495c-1.166 0.683-2.424 1.209-3.775 1.578-1.351 0.384-2.751 0.576-4.201 0.576s-2.851-0.192-4.201-0.576c-1.336-0.37-2.595-0.896-3.775-1.578-1.166-0.697-2.232-1.528-3.199-2.495s-1.799-2.033-2.495-3.199c-0.682-1.18-1.216-2.438-1.599-3.775-0.37-1.351-0.555-2.751-0.555-4.202s0.185-2.851 0.555-4.201c0.384-1.351 0.917-2.609 1.599-3.775 0.697-1.166 1.528-2.232 2.495-3.199s2.033-1.792 3.199-2.474c1.18-0.682 2.438-1.209 3.775-1.578 1.351-0.384 2.751-0.576 4.201-0.576s2.851 0.192 4.201 0.576c1.351 0.37 2.609 0.896 3.775 1.578s2.232 1.507 3.199 2.474c0.967 0.967 1.791 2.033 2.474 3.199s1.208 2.424 1.578 3.775c0.384 1.351 0.576 2.751 0.576 4.201zM52.379 15.847c0-1.336-0.256-2.595-0.768-3.775-0.512-1.194-1.208-2.225-2.090-3.092-0.867-0.882-1.898-1.578-3.093-2.090-1.18-0.512-2.438-0.768-3.775-0.768-1.351 0-2.616 0.256-3.796 0.768s-2.211 1.209-3.093 2.090c-0.882 0.867-1.578 1.898-2.090 3.092-0.512 1.18-0.768 2.438-0.768 3.775s0.256 2.595 0.768 3.775c0.512 1.166 1.209 2.19 2.090 3.071s1.912 1.578 3.093 2.090c1.18 0.512 2.445 0.768 3.796 0.768 1.336 0 2.595-0.256 3.775-0.768 1.194-0.512 2.225-1.208 3.093-2.090 0.882-0.881 1.578-1.905 2.090-3.071 0.512-1.18 0.768-2.438 0.768-3.775z"></path>
<path d="M0 9.597c0-1.265 0.242-2.453 0.725-3.562s1.137-2.076 1.962-2.901c0.839-0.839 1.813-1.5 2.922-1.983s2.296-0.725 3.562-0.725h14.033v6.121h-14.033c-0.427 0-0.825 0.078-1.194 0.235s-0.697 0.377-0.981 0.661c-0.27 0.27-0.483 0.59-0.64 0.96s-0.235 0.768-0.235 1.194c0 0.427 0.078 0.832 0.235 1.216 0.156 0.37 0.37 0.697 0.64 0.981 0.284 0.27 0.611 0.483 0.981 0.64s0.768 0.235 1.194 0.235h6.121c1.265 0 2.453 0.242 3.562 0.725 1.123 0.469 2.097 1.123 2.922 1.962 0.839 0.825 1.493 1.799 1.962 2.922 0.483 1.109 0.725 2.296 0.725 3.562s-0.242 2.453-0.725 3.562c-0.469 1.109-1.123 2.083-1.962 2.922-0.825 0.825-1.799 1.479-2.922 1.962-1.109 0.483-2.296 0.725-3.562 0.725h-13.585v-6.121h13.585c0.427 0 0.825-0.078 1.194-0.235s0.69-0.369 0.96-0.64c0.284-0.284 0.505-0.611 0.661-0.981s0.235-0.768 0.235-1.194-0.078-0.825-0.235-1.194c-0.156-0.37-0.377-0.69-0.661-0.96-0.27-0.284-0.59-0.505-0.96-0.661s-0.768-0.235-1.194-0.235h-6.121c-1.265 0-2.453-0.242-3.562-0.725s-2.083-1.137-2.922-1.962c-0.825-0.839-1.479-1.813-1.962-2.922-0.483-1.123-0.725-2.318-0.725-3.583z"></path>
</symbol>
<symbol id="arrow" viewBox="0 0 34 32">
<path d="M32.305 2.133c0-1.178-0.955-2.133-2.133-2.133h-19.2c-1.178 0-2.133 0.955-2.133 2.133s0.955 2.133 2.133 2.133h17.067v17.067c0 1.178 0.955 2.133 2.133 2.133s2.133-0.955 2.133-2.133v-19.2zM3.947 31.375l27.733-27.733-3.017-3.017-27.733 27.733 3.017 3.017z"></path>
</symbol>
<symbol id="arrow-left" viewBox="0 0 19 32">
<path d="M14.464 31.364l-13.827-13.827c-0.849-0.848-0.849-2.224 0-3.073l13.827-13.827c0.848-0.849 2.224-0.849 3.073 0s0.848 2.224 0 3.073l-12.291 12.291 12.291 12.291c0.848 0.848 0.848 2.224 0 3.073s-2.224 0.848-3.073 0z"></path>
</symbol>
<symbol id="arrow-right" viewBox="0 0 19 32">
<path d="M4.282 31.364l13.827-13.827c0.849-0.848 0.849-2.224 0-3.073l-13.827-13.827c-0.849-0.849-2.224-0.849-3.073 0s-0.849 2.224 0 3.073l12.291 12.291-12.291 12.291c-0.849 0.848-0.849 2.224 0 3.073s2.224 0.848 3.073 0z"></path>
</symbol>
<symbol id="arrow-button" viewBox="0 0 32 32">
<path d="M32.001 2.946c0-1.359-1.102-2.462-2.462-2.462h-22.154c-1.359 0-2.462 1.102-2.462 2.462s1.102 2.462 2.462 2.462h19.692v19.692c0 1.36 1.102 2.462 2.462 2.462s2.462-1.102 2.462-2.462v-22.154zM5.171 30.795l26.109-26.109-3.481-3.481-26.108 26.108 3.481 3.481z"></path>
</symbol>
<symbol id="sun" viewBox="0 0 34 32">
<path d="M18.108 30.86c0 0.629-0.511 1.14-1.14 1.14s-1.14-0.511-1.14-1.14v-3.546c0-0.629 0.511-1.14 1.14-1.14s1.14 0.511 1.14 1.14v3.546zM24.164 24.807c-0.446-0.446-0.446-1.167 0-1.613 0.445-0.445 1.167-0.445 1.612 0l2.507 2.507c0.445 0.445 0.445 1.167 0 1.612-0.446 0.446-1.167 0.446-1.613 0l-2.506-2.506zM7.267 27.313c-0.444 0.446-1.167 0.446-1.612 0-0.444-0.445-0.444-1.167 0-1.612l2.507-2.507c0.444-0.445 1.167-0.445 1.612 0 0.444 0.446 0.444 1.167 0 1.613l-2.508 2.506zM16.939 8.065c-4.438 0-8.042 3.604-8.042 8.043 0 4.438 3.604 8.042 8.042 8.042 4.439 0 8.043-3.604 8.043-8.042 0-4.439-3.604-8.043-8.043-8.043zM16.939 10.345c3.181 0 5.764 2.583 5.764 5.764s-2.583 5.763-5.764 5.763c-3.18 0-5.763-2.582-5.763-5.763s2.583-5.764 5.763-5.764zM28.283 17.14c-0.629 0-1.14-0.511-1.14-1.14s0.511-1.14 1.14-1.14h3.546c0.629 0 1.14 0.511 1.14 1.14s-0.511 1.14-1.14 1.14h-3.546zM2.108 17.14c-0.629 0-1.14-0.511-1.14-1.14s0.511-1.14 1.14-1.14h3.546c0.629 0 1.14 0.511 1.14 1.14s-0.511 1.14-1.14 1.14h-3.546zM5.655 6.298c-0.444-0.444-0.444-1.167 0-1.612 0.444-0.446 1.167-0.446 1.612 0l2.507 2.506c0.444 0.446 0.444 1.167 0 1.613-0.445 0.444-1.167 0.444-1.612 0l-2.507-2.507zM25.776 8.806c-0.445 0.444-1.167 0.444-1.612 0-0.446-0.446-0.446-1.167 0-1.613l2.506-2.506c0.446-0.446 1.167-0.446 1.613 0 0.445 0.445 0.445 1.167 0 1.612l-2.507 2.507zM18.108 4.686c0 0.629-0.511 1.14-1.14 1.14s-1.14-0.511-1.14-1.14v-3.546c0-0.629 0.511-1.14 1.14-1.14s1.14 0.511 1.14 1.14v3.546z"></path>
</symbol>
<symbol id="moon" viewBox="0 0 32 32">
<path d="M17.066 27.731c-7.054 0-12.8-5.746-12.8-12.805s5.484-12.623 12.486-12.791c0.379-0.014 0.692 0.16 0.903 0.444s0.271 0.655 0.154 1c-0.365 1.094-0.556 2.231-0.556 3.384 0 5.857 4.763 10.618 10.618 10.618h0.271c0.35 0 0.686 0.168 0.889 0.453 0.205 0.285 0.262 0.655 0.145 0.986-1.749 5.213-6.62 8.714-12.127 8.714l0.017-0.003zM15.329 4.459c-5.076 0.823-8.868 5.17-8.868 10.472 0 5.857 4.763 10.618 10.612 10.618 4.062 0 7.708-2.296 9.481-5.849-6.438-0.672-11.472-6.125-11.472-12.734 0-0.838 0.080-1.678 0.248-2.501l-0.001-0.006z"></path>
</symbol>
<symbol id="phone" viewBox="0 0 32 32">
<path d="M21.65 22.109c-0.476 0.859-1.532 1.218-2.402 0.801-3.319-1.601-8.54-6.823-10.165-10.176-0.418-0.87-0.070-1.938 0.801-2.414l3.435-1.88-5.72-8.459-4.177 3.052c-3.307 2.413-4.386 6.869-2.553 10.594 3.4 6.939 10.733 14.168 17.823 17.591 1.114 0.545 2.309 0.801 3.493 0.801 2.599 0 5.152-1.242 6.788-3.493l3.028-4.142-8.47-5.732-1.88 3.458z"></path>
<path d="M29.029 14.334l2.298-0.322c-0.972-6.911-6.479-12.418-13.39-13.392l-0.323 2.297c5.892 0.83 10.586 5.525 11.416 11.416z"></path>
<path d="M23.483 15.123l2.298-0.322c-0.628-4.457-4.177-8.006-8.634-8.634l-0.322 2.297c3.438 0.484 6.176 3.223 6.659 6.659z"></path>
</symbol>
<symbol id="email" viewBox="0 0 32 32">
<path d="M17.205 18.34l11.342-11.342c-0.584-0.377-1.279-0.598-2.022-0.598h-20.654c-0.722 0-1.394 0.212-1.968 0.566l11.376 11.374c0.515 0.515 1.415 0.516 1.927 0z"></path>
<path d="M30.263 23.996v-13.859c0-0.648-0.165-1.259-0.46-1.792l-8.777 8.777 8.736 8.736c0.318-0.551 0.501-1.187 0.501-1.862z"></path>
<path d="M26.526 27.733c0.717 0 1.385-0.206 1.954-0.56l-8.754-8.754-1.218 1.218c-0.607 0.607-1.406 0.938-2.267 0.938-0.855 0-1.66-0.33-2.267-0.938l-1.264-1.264-8.797 8.801c0.569 0.354 1.241 0.56 1.96 0.56l20.653-0z"></path>
<path d="M2.133 10.137v13.859c0 0.675 0.183 1.311 0.496 1.857l8.777-8.777-8.777-8.786c-0.313 0.548-0.496 1.176-0.496 1.848z"></path>
</symbol>
<symbol id="location" viewBox="0 0 32 32">
<path d="M15.032 5.892c1.295 0 2.537 0.515 3.453 1.431 0.915 0.916 1.429 2.159 1.427 3.454s-0.516 2.536-1.433 3.451c-0.917 0.915-2.16 1.428-3.456 1.425s-2.536-0.519-3.45-1.436c-0.915-0.918-1.426-2.162-1.423-3.457 0.004-1.293 0.519-2.53 1.434-3.444 0.915-0.912 2.154-1.425 3.447-1.425zM11.603 22.593l2.923 3.883c0.116 0.161 0.302 0.258 0.501 0.258s0.385-0.096 0.501-0.258l2.933-3.883c1.355 0.232 2.65 0.728 3.816 1.457 2.323 1.584 1.565 3.378-0.962 4.582-3.448 1.645-9.118 1.645-12.566 0-2.526-1.209-3.269-3.001-0.962-4.585 1.165-0.729 2.462-1.223 3.816-1.455zM17.691 21.546l0.018-0.024 4.155-5.491c1.186-1.499 1.82-3.359 1.796-5.27 0-3.083-1.644-5.93-4.314-7.472-2.67-1.541-5.958-1.541-8.628 0-2.67 1.542-4.314 4.39-4.314 7.472-0.024 1.91 0.61 3.771 1.796 5.27l6.832 9.041 2.659-3.526z"></path>
</symbol>
<symbol id="fintech" viewBox="0 0 31 32">
<path d="M15.587 23.318c1.852 0.002 3.522-1.113 4.233-2.822 0.711-1.71 0.322-3.68-0.985-4.992-1.308-1.311-3.276-1.707-4.988-1.002-1.713 0.705-2.832 2.373-2.836 4.225-0.003 1.215 0.476 2.383 1.336 3.244 0.858 0.861 2.023 1.346 3.24 1.348zM15.587 14.743c1.618-0.001 3.078 0.973 3.697 2.469 0.619 1.495 0.275 3.216-0.871 4.359-1.146 1.144-2.868 1.483-4.361 0.86-1.495-0.624-2.465-2.086-2.458-3.705 0.010-2.2 1.793-3.978 3.993-3.983zM12.445 19.018h1.519c0.066 1.802 0.734 3.128 1.608 3.128s1.554-1.324 1.608-3.128h1.429c0.16 0 0.291-0.131 0.291-0.291 0-0.162-0.131-0.291-0.291-0.291h-1.43c-0.066-1.802-0.734-3.131-1.608-3.131s-1.554 1.329-1.608 3.131h-1.518c-0.162 0-0.291 0.13-0.291 0.291 0 0.16 0.13 0.291 0.291 0.291zM15.587 21.577c-0.408 0-0.963-0.96-1.026-2.545h2.035c-0.061 1.585-0.621 2.545-1.010 2.545zM15.587 15.901c0.389 0 0.963 0.963 1.026 2.548h-2.067c0.063-1.585 0.618-2.548 1.042-2.548zM1.715 26.145c0 1.012 0.817 1.837 1.83 1.846h4.235c-0.714 0.631-0.963 1.639-0.625 2.53 0.339 0.892 1.194 1.48 2.147 1.479h12.572c0.953 0.001 1.808-0.587 2.147-1.479 0.338-0.892 0.089-1.9-0.625-2.53h4.235c1.018 0 1.844-0.826 1.844-1.846v-14.801c0.003-0.491-0.189-0.964-0.536-1.312s-0.817-0.545-1.308-0.545h-24.086c-1.017 0.009-1.835 0.839-1.83 1.857l0 14.801zM23.586 29.704c0 0.945-0.768 1.713-1.713 1.713h-12.572c-0.945 0-1.713-0.768-1.713-1.713 0-0.947 0.768-1.713 1.713-1.713h12.572c0.945 0.001 1.71 0.768 1.713 1.713zM2.298 11.345c-0.006-0.696 0.552-1.266 1.247-1.275h24.086c0.695 0.009 1.253 0.578 1.247 1.275v14.801c0.001 0.692-0.555 1.256-1.247 1.263h-24.086c-0.335 0-0.657-0.133-0.893-0.369-0.237-0.237-0.37-0.559-0.369-0.894l0.015-14.801zM12.305 4.404c0.615-0.52 0.692-1.439 0.175-2.055-1.256-1.489-3.103-2.348-5.051-2.348s-3.795 0.86-5.051 2.348c-0.519 0.615-0.444 1.532 0.168 2.055 0.262 0.223 0.596 0.347 0.94 0.345h0.121c0.385-0.031 0.742-0.214 0.991-0.508 0.704-0.83 1.736-1.31 2.825-1.31 1.087 0 2.12 0.479 2.823 1.31 0.28 0.323 0.688 0.507 1.116 0.501 0.344 0.001 0.677-0.119 0.944-0.338zM10.697 3.859c-0.813-0.963-2.007-1.518-3.267-1.518s-2.455 0.555-3.267 1.518c-0.147 0.179-0.363 0.288-0.594 0.303-0.351 0.028-0.686-0.159-0.846-0.473s-0.117-0.695 0.112-0.963c1.145-1.35 2.826-2.13 4.596-2.13s3.451 0.779 4.596 2.13c0.153 0.176 0.23 0.406 0.211 0.639-0.017 0.233-0.13 0.449-0.309 0.599-0.373 0.299-0.915 0.252-1.231-0.105zM7.43 3.86v-0.001c-1.113 0.003-2.166 0.503-2.874 1.361-0.259 0.294-0.388 0.682-0.357 1.074 0.032 0.39 0.218 0.753 0.52 1.004 0.302 0.252 0.692 0.37 1.082 0.331 0.39-0.041 0.747-0.236 0.992-0.543 0.153-0.197 0.388-0.312 0.637-0.312s0.484 0.115 0.637 0.312c0.277 0.334 0.686 0.526 1.119 0.524 0.565 0 1.079-0.328 1.32-0.839 0.239-0.513 0.162-1.116-0.201-1.55-0.709-0.854-1.763-1.348-2.874-1.349v-0.010zM9.761 6.825v-0.001c-0.374 0.296-0.916 0.246-1.231-0.112-0.264-0.331-0.663-0.521-1.084-0.521-0.422 0-0.822 0.191-1.084 0.521-0.309 0.37-0.861 0.421-1.232 0.112-0.37-0.309-0.421-0.861-0.112-1.231 0.596-0.728 1.487-1.149 2.428-1.149 0.94 0 1.831 0.421 2.427 1.149 0.152 0.179 0.224 0.411 0.204 0.644-0.022 0.235-0.135 0.45-0.316 0.599v-0.010zM28.635 4.394v-0.001c0.603-0.524 0.673-1.433 0.16-2.044-1.256-1.489-3.103-2.348-5.051-2.348s-3.795 0.859-5.050 2.348c-0.519 0.615-0.444 1.533 0.168 2.055 0.262 0.223 0.596 0.347 0.94 0.345h0.121c0.385-0.031 0.742-0.214 0.991-0.508 0.704-0.83 1.736-1.31 2.825-1.31 1.087 0 2.12 0.479 2.823 1.31 0.28 0.323 0.688 0.507 1.116 0.501 0.344 0.001 0.677-0.119 0.944-0.338l0.015-0.010zM27.027 3.85v-0.003c-0.811-0.963-2.007-1.518-3.266-1.518-1.26 0-2.456 0.555-3.267 1.518-0.149 0.179-0.363 0.288-0.594 0.303-0.353 0.028-0.686-0.159-0.846-0.473s-0.116-0.695 0.112-0.963c1.145-1.35 2.826-2.13 4.596-2.13s3.45 0.779 4.594 2.13c0.156 0.178 0.232 0.412 0.211 0.648-0.022 0.237-0.138 0.455-0.323 0.602-0.373 0.299-0.915 0.252-1.231-0.105l0.015-0.009zM23.76 3.85l0.001-0.003c-1.113 0.003-2.166 0.503-2.876 1.361-0.258 0.294-0.386 0.682-0.355 1.074 0.031 0.39 0.218 0.753 0.52 1.004 0.302 0.252 0.691 0.37 1.081 0.331 0.39-0.041 0.749-0.236 0.992-0.543 0.153-0.197 0.389-0.312 0.638-0.312s0.484 0.115 0.637 0.312c0.275 0.334 0.686 0.526 1.119 0.524 0.565 0 1.079-0.328 1.318-0.839 0.24-0.513 0.162-1.116-0.2-1.55-0.717-0.854-1.776-1.345-2.89-1.337l0.015-0.020zM26.091 6.815l0.001-0.003c-0.376 0.296-0.916 0.246-1.232-0.112-0.262-0.331-0.661-0.521-1.084-0.521-0.421 0-0.82 0.191-1.084 0.521-0.309 0.37-0.86 0.421-1.231 0.112s-0.421-0.861-0.112-1.231c0.596-0.728 1.487-1.149 2.427-1.149 0.941 0 1.833 0.421 2.428 1.149 0.153 0.182 0.226 0.418 0.201 0.654-0.023 0.236-0.143 0.453-0.329 0.6l0.015-0.020zM4.218 25.407v-13.335c0.001-0.16 0.131-0.29 0.291-0.291h6.289c0.16 0 0.291 0.13 0.291 0.291 0 0.16-0.131 0.291-0.291 0.291h-5.997v12.752h2.331c0.16 0 0.291 0.131 0.291 0.291 0 0.162-0.131 0.291-0.291 0.291h-2.622c-0.162 0-0.291-0.129-0.291-0.291zM20.086 12.072c0.002-0.16 0.131-0.29 0.291-0.291h6.289c0.16 0.001 0.29 0.131 0.291 0.291v13.335c0 0.162-0.13 0.291-0.291 0.291h-2.611c-0.16 0-0.291-0.13-0.291-0.291 0-0.16 0.131-0.291 0.291-0.291h2.331v-12.752h-6.009c-0.16-0.003-0.29-0.131-0.291-0.292z"></path>
</symbol>
<symbol id="healthcare" viewBox="0 0 31 32">
<path d="M1.234 26.824h5.149c-0.847 0.705-1.161 1.865-0.788 2.902 0.375 1.037 1.36 1.727 2.462 1.727h14.518c1.104 0.002 2.088-0.691 2.464-1.73 0.374-1.037 0.056-2.199-0.794-2.904h5.154c1.059 0 1.916-0.857 1.916-1.914v-17.482c0-1.059-0.857-1.916-1.916-1.916h-2.892c-0.048 0.002-0.095 0.015-0.138 0.041-0.065-0.177-0.133-0.351-0.206-0.525-0.939-2.161-2.621-3.685-4.5-4.085-3.347-0.706-5.626 1.479-6.347 2.287-0.721-0.806-3-2.993-6.347-2.287-1.88 0.404-3.561 1.924-4.5 4.085-0.080 0.186-0.153 0.375-0.218 0.564-0.054-0.050-0.124-0.079-0.198-0.080h-2.823c-1.057 0-1.915 0.857-1.915 1.916v17.485c0 0.51 0.201 0.997 0.563 1.357 0.36 0.36 0.848 0.561 1.357 0.56h0.001zM24.591 28.84c0 0.535-0.212 1.048-0.59 1.426s-0.891 0.591-1.426 0.591h-14.518c-1.113 0-2.016-0.903-2.016-2.017 0-1.113 0.903-2.016 2.016-2.016h14.518c0.535 0 1.048 0.212 1.426 0.591 0.378 0.378 0.59 0.891 0.59 1.425zM5.025 5.261c0.859-1.98 2.383-3.371 4.070-3.731l-0.002 0.002c0.398-0.085 0.803-0.129 1.21-0.13 2.956 0 4.689 2.364 4.771 2.476v0.002c0.059 0.074 0.15 0.118 0.246 0.118 0.095 0 0.186-0.044 0.245-0.118 0.092-0.129 2.291-3.126 5.977-2.347 1.686 0.358 3.226 1.75 4.070 3.731 0.963 2.218 0.891 4.609-0.189 6.404-2.081 3.448-8.872 9.219-10.082 10.252-1.234-1.033-8.021-6.804-10.082-10.252-1.125-1.797-1.198-4.187-0.233-6.406zM-0.077 7.423c0-0.724 0.587-1.311 1.311-1.311h2.848c-0.62 1.958-0.396 4.085 0.617 5.872 2.33 3.864 10.082 10.291 10.424 10.566v-0.002c0.115 0.101 0.287 0.101 0.404 0 0.327-0.274 8.094-6.702 10.424-10.566v0.002c1.010-1.786 1.234-3.911 0.617-5.867h2.848c0.723 0 1.31 0.587 1.31 1.31v17.482c0 0.349-0.142 0.684-0.39 0.929-0.25 0.245-0.587 0.38-0.936 0.375h-28.165c-0.348 0-0.682-0.138-0.929-0.383-0.245-0.246-0.383-0.581-0.383-0.928l-0-17.477zM1.334 24.506l0.002-16.68c0-0.166 0.135-0.302 0.302-0.302 0.166 0 0.302 0.136 0.302 0.302v16.369h26.752v-16.369c0-0.166 0.136-0.302 0.302-0.302 0.168 0 0.302 0.136 0.302 0.302v16.68c0.002 0.080-0.030 0.157-0.086 0.215-0.058 0.057-0.135 0.088-0.216 0.088h-27.357c-0.082 0-0.159-0.030-0.216-0.088-0.056-0.057-0.088-0.135-0.086-0.215h-0.002zM8.771 11.738h3.105c0.33-0.002 0.643-0.148 0.851-0.404l0.537 1.815c0.124 0.445 0.508 0.765 0.968 0.808h0.097c0.426-0.008 0.812-0.26 0.988-0.65l0.806-1.612h1.11c0.34 0.009 0.667-0.139 0.883-0.404 0.204 0.293 0.538 0.469 0.895 0.472l2.851 0.032c0.612 0 1.108-0.496 1.108-1.109s-0.496-1.108-1.108-1.108l-2.088-0.024-0.673-1.742h-0.002c-0.165-0.436-0.587-0.72-1.053-0.711-0.464 0.011-0.874 0.309-1.028 0.747l-0.564 1.614h-1.016v-0.002c-0.327-0.014-0.641 0.126-0.851 0.375l-0.762-2.625c-0.138-0.473-0.572-0.798-1.065-0.798s-0.926 0.325-1.065 0.798l-0.653 2.299h-2.27c-0.612 0-1.109 0.498-1.109 1.11s0.496 1.109 1.109 1.109v0.012zM8.771 10.124h2.512c0.136 0.002 0.256-0.089 0.29-0.221l0.718-2.516c0.061-0.219 0.259-0.37 0.485-0.37s0.426 0.151 0.487 0.37l0.975 3.322c0.036 0.12 0.142 0.204 0.266 0.213 0.124 0.012 0.242-0.056 0.295-0.169l0.198-0.404-0.002 0.002c0.083-0.178 0.265-0.289 0.46-0.283h1.234c0.129 0 0.243-0.082 0.287-0.201l0.625-1.803c0.070-0.201 0.256-0.336 0.467-0.339 0.212-0.005 0.402 0.125 0.476 0.322l0.75 1.931c0.042 0.118 0.154 0.195 0.278 0.194l2.291 0.029c0.133 0.002 0.262 0.056 0.355 0.151s0.145 0.224 0.144 0.357c-0.006 0.278-0.233 0.501-0.511 0.501l-2.823-0.033c-0.206-0.002-0.39-0.129-0.464-0.322l-0.153-0.404c-0.048-0.116-0.163-0.194-0.29-0.194-0.127 0.005-0.237 0.086-0.278 0.206l-0.109 0.307c-0.068 0.206-0.263 0.343-0.479 0.339h-1.304c-0.116-0.002-0.222 0.065-0.274 0.169l-0.883 1.807c-0.086 0.171-0.26 0.28-0.452 0.281h-0.044c-0.207-0.017-0.381-0.159-0.44-0.358l-0.779-2.642h0.002c-0.039-0.127-0.157-0.216-0.29-0.218-0.135 0.005-0.25 0.094-0.287 0.222l-0.126 0.428h0.002c-0.062 0.216-0.259 0.366-0.484 0.366h-3.106c-0.278 0-0.504-0.225-0.504-0.504s0.225-0.504 0.504-0.504l-0.020-0.033z"></path>
</symbol>
<symbol id="ecommerce" viewBox="0 0 31 32">
<path d="M17.389 18.398l-0.613-2.433v-0.002c-0.049-0.183-0.211-0.31-0.396-0.307h-2.356c-0.222 0-0.403 0.186-0.403 0.415s0.181 0.415 0.403 0.415h2.017l1.911 7.623v0.98c0.005 0.678 0.537 1.225 1.194 1.229h6.172c0.107 0 0.21-0.044 0.285-0.122s0.118-0.183 0.118-0.294-0.042-0.216-0.118-0.294c-0.076-0.078-0.178-0.122-0.285-0.122h-6.139c-0.213-0.005-0.383-0.18-0.388-0.399v-0.615h6.454c0.197 0 0.364-0.148 0.396-0.349l0.887-5.247c0.024-0.12-0.009-0.243-0.088-0.333-0.074-0.099-0.187-0.154-0.307-0.149l-8.745 0zM24.916 23.646h-6.211l-1.114-4.417h8.067l-0.742 4.417z"></path>
<path d="M19.584 27.765c0 0.308 0.18 0.587 0.457 0.706s0.597 0.054 0.81-0.165c0.213-0.219 0.276-0.547 0.161-0.832s-0.386-0.472-0.685-0.472c-0.197 0-0.386 0.081-0.525 0.224-0.14 0.143-0.217 0.337-0.217 0.54z"></path>
<path d="M23.496 27.765c0 0.308 0.181 0.587 0.458 0.706s0.596 0.054 0.808-0.165c0.213-0.219 0.276-0.547 0.161-0.832s-0.386-0.472-0.685-0.472c-0.197 0-0.386 0.081-0.525 0.224s-0.217 0.337-0.217 0.54z"></path>
<path d="M9.185 28.945h8.471c0.222 0 0.403-0.187 0.403-0.415s-0.181-0.415-0.403-0.415h-8.471c-1.56 0-2.824-1.301-2.824-2.907v-0.415h10.012c0.222 0 0.403-0.187 0.403-0.415s-0.181-0.415-0.403-0.415h-10.012v-15.779h15.328v8.555c0 0.229 0.181 0.415 0.403 0.415s0.403-0.187 0.403-0.415v-9.8c-0.005-2.062-1.628-3.732-3.63-3.737h-9.681c-2.003 0.005-3.626 1.676-3.63 3.737v18.27c0.005 2.062 1.628 3.732 3.63 3.737zM9.185 4.030h9.681c1.56 0 2.824 1.301 2.824 2.907v0.415h-15.328v-0.415c0-1.606 1.264-2.907 2.824-2.907z"></path>
</symbol>
</defs>
</svg>
